<?xml version="1.0"?><svg width="376.1" height="379.28" xmlns="http://www.w3.org/2000/svg">
 <title>Blank shield soccer</title>
 <defs>
  <pattern height="100.002" id="Area_Rug" patternUnits="userSpaceOnUse" viewBox="0 -100.002 100 100.002" width="100" x="-27.81" y="400.192">
   <g id="svg_1">
    <polygon fill="none" points="0,0 100,0 100-100.002 0-100.002 " id="svg_2"/>
    <polygon fill="#E12008" points="100-0.001 0-0.001 0-100.001 100-100.001 " id="svg_3"/>
    <g id="svg_4">
     <path d="m18,-58.683998c-0.839001,0 -1.646999,-0.121002 -2.421,-0.329002c-0.002001,0.004002 -0.005,0.007999 -0.007001,0.012001c0.565,0.977001 1.039001,2.010998 1.415,3.091999c0.33,-0.056 0.667,-0.091999 1.013,-0.091999c3.313,0 6,2.687 6,6s-2.687,6 -6,6c-0.346001,0 -0.683001,-0.035999 -1.013,-0.091999c-0.375999,1.080997 -0.85,2.114998 -1.415,3.091999c0.002001,0.003998 0.005,0.007999 0.007001,0.012001c0.772999,-0.208 1.581999,-0.329002 2.421,-0.329002c4.308001,0 7.921,2.926003 8.988001,6.896c5.381998,-3.111 9.011999,-8.916 9.011999,-15.578999s-3.630001,-12.468002 -9.011999,-15.579002c-1.067001,3.970001 -4.68,6.896004 -8.988001,6.896004z" fill="#A2120F" id="svg_5"/>
     <path d="m18,-53.000999c1.657,0 3,1.343998 3,3c0,1.656998 -1.343,3 -3,3c-0.091,0 -0.177,-0.019001 -0.266001,-0.026001c-0.167999,1.010002 -0.417999,1.989002 -0.747,2.935001c0.33,0.056 0.667,0.091999 1.013,0.091999c3.313,0 6,-2.687 6,-6s-2.687,-6 -6,-6c-0.346001,0 -0.683001,0.035999 -1.013,0.091999c0.329,0.945 0.579,1.924999 0.747,2.936001c0.089001,-0.008999 0.175001,-0.028999 0.266001,-0.028999z" fill="#7F526A" id="svg_6"/>
     <path d="m21,-50.000999c0,-1.656002 -1.343,-3 -3,-3c-0.091,0 -0.177,0.02 -0.266001,0.027c0.162001,0.968998 0.266001,1.958 0.266001,2.973s-0.104,2.003998 -0.266001,2.973999c0.089001,0.007999 0.175001,0.026001 0.266001,0.026001c1.657,0 3,-1.343002 3,-3z" fill="#584B41" id="svg_7"/>
     <path d="m8.705,-52.25c0.187,0.720001 0.295,1.472 0.295,2.249001c0,0.778 -0.108,1.528 -0.295,2.249001c2.858,1.584 5.23,3.925999 6.867,6.750999c0.565,-0.977001 1.039001,-2.011002 1.415,-3.091999c-2.83,-0.482002 -4.987,-2.940002 -4.987,-5.908001s2.157,-5.425999 4.987,-5.908001c-0.375999,-1.081001 -0.85,-2.114998 -1.415,-3.091999c-1.636,2.824001 -4.009,5.167 -6.867,6.750999z" fill="#531045" id="svg_8"/>
     <path d="m12,-50.000999c0,2.967999 2.157,5.425999 4.987,5.908001c0.329,-0.945 0.579,-1.925003 0.747,-2.935001c-1.529999,-0.136002 -2.733999,-1.408001 -2.733999,-2.973s1.204,-2.836002 2.733999,-2.973c-0.167999,-1.011002 -0.417999,-1.990002 -0.747,-2.936001c-2.83,0.483002 -4.987,2.940998 -4.987,5.909z" fill="#654C76" id="svg_9"/>
     <path d="m17.733999,-52.973999c-1.529999,0.136997 -2.733999,1.407997 -2.733999,2.973s1.204,2.836998 2.733999,2.973999c0.162001,-0.970001 0.266001,-1.959 0.266001,-2.973999s-0.104,-2.004002 -0.266001,-2.973z" fill="#472B45" id="svg_10"/>
     <path d="m6,-68.000999c0,0.346001 -0.035,0.682999 -0.092,1.013c1.082,0.375999 2.115,0.848999 3.092,1.415001c0.004,-0.001999 0.008,-0.005005 0.012,-0.007004c-0.208,-0.772995 -0.329,-1.582001 -0.329,-2.420998c0,-4.306999 2.926001,-7.921997 6.896001,-8.987999c-3.112,-5.381004 -8.916,-9.012001 -15.579,-9.012001l0,12c3.313,0 6,2.686996 6,6z" fill="#A2120F" id="svg_11"/>
     <path d="m3,-68.000999c0,0.090996 -0.02,0.177002 -0.026,0.265999c1.01,0.168999 1.989,0.417999 2.935,0.747002c0.056,-0.330002 0.091,-0.667 0.091,-1.013c0,-3.313004 -2.687,-6 -6,-6l0,3c1.657,0 3,1.344002 3,3z" fill="#7F526A" id="svg_12"/>
     <path d="m0,-71.000999l0,3c1.016,0 2.004,0.103996 2.974,0.265999c0.006,-0.088997 0.026,-0.175003 0.026,-0.265999c0,-1.655998 -1.343,-3 -3,-3z" fill="#56254B" id="svg_13"/>
     <path d="m9.012,-65.580002c-0.004,0.001999 -0.008,0.005005 -0.012,0.007004c0.005,0.003998 0.011,0.006996 0.016,0.009995c-0.002,-0.004997 -0.003,-0.010994 -0.004,-0.016998z" fill="#FFFFFF" id="svg_14"/>
     <polygon fill="#FFFFFF" points="15.572-59.001 15.579-59.013 15.562-59.017 " id="svg_15"/>
     <path d="m9,-65.572998c-0.977,-0.565002 -2.01,-1.039001 -3.092,-1.415001c-0.482,2.830002 -2.94,4.987 -5.908,4.987l0,3c0.778,0 1.529,0.107998 2.249,0.294998c1.584,-2.857998 3.926,-5.230999 6.751,-6.866997z" fill="#531045" id="svg_16"/>
     <path d="m5.908,-66.987999c-0.945,-0.329002 -1.925,-0.578003 -2.935,-0.747002c-0.136,1.529999 -1.408,2.734001 -2.973,2.734001l0,3c2.968,0 5.426,-2.156998 5.908,-4.987z" fill="#654C76" id="svg_17"/>
     <path d="m0,-65.000999c1.565,0 2.837,-1.204002 2.974,-2.734001c-0.97,-0.161003 -1.958,-0.265999 -2.974,-0.265999l0,3z" fill="#472B45" id="svg_18"/>
     <path d="m2.249,-58.706001c3.16,0.814003 5.642,3.296001 6.456,6.456001c2.858,-1.584 5.23,-3.926998 6.867,-6.750999c-0.002999,-0.005001 -0.007,-0.011002 -0.009999,-0.015999c-3.184,-0.862003 -5.685,-3.363003 -6.547,-6.547005c-0.004001,-0.001999 -0.01,-0.004997 -0.015,-0.008995c-2.825,1.635998 -5.167,4.008999 -6.751,6.866997z" fill="#787638" id="svg_19"/>
     <path d="m15.579,-23.013c-3.971001,-1.066999 -6.896001,-4.681 -6.896001,-8.987999c0,-0.839001 0.121,-1.646999 0.329,-2.421001c-0.004,-0.001999 -0.008,-0.004997 -0.012,-0.007c-0.977,0.565002 -2.01,1.039001 -3.092,1.415001c0.057,0.330002 0.092,0.667 0.092,1.013c0,3.313 -2.687,6 -6,6l0,11.999999c6.663,0 12.467,-3.63 15.579,-9.012z" fill="#A2120F" id="svg_20"/>
     <path d="m3,-32.000999c0,1.657 -1.343,3 -3,3l0,3c3.313,0 6,-2.687 6,-6c0,-0.346001 -0.035,-0.682999 -0.092,-1.013c-0.945,0.328999 -1.925,0.577999 -2.935,0.747002c0.007,0.088997 0.027,0.174999 0.027,0.265999z" fill="#7F526A" id="svg_21"/>
     <path d="m0,-29.000999c1.657,0 3,-1.343 3,-3c0,-0.091 -0.02,-0.177002 -0.026,-0.265999c-0.97,0.161999 -1.958,0.265999 -2.974,0.265999l0,3z" fill="#56254B" id="svg_22"/>
     <path d="m9,-34.429001c0.004,0.002003 0.008,0.005001 0.012,0.007c0.000999,-0.006001 0.002,-0.011997 0.004,-0.016998c-0.005,0.002998 -0.011,0.007 -0.016,0.009998z" fill="#FFFFFF" id="svg_23"/>
     <polygon fill="#FFFFFF" points="15.579-40.989 15.572-41.001 15.562-40.985 " id="svg_24"/>
     <path d="m2.249,-41.296001c-0.72,0.187 -1.471,0.295002 -2.249,0.295002l0,3c2.968,0 5.426,2.156998 5.908,4.987c1.082,-0.375999 2.115,-0.848999 3.092,-1.415001c-2.825,-1.635998 -5.167,-4.008999 -6.751,-6.867001z" fill="#531045" id="svg_25"/>
     <path d="m0,-38.000999l0,3c1.565,0 2.837,1.203999 2.974,2.734001c1.01,-0.169003 1.989,-0.418003 2.935,-0.747002c-0.483,-2.830002 -2.941,-4.987 -5.909,-4.987z" fill="#654C76" id="svg_26"/>
     <path d="m2.974,-32.266998c-0.137,-1.530003 -1.409,-2.734001 -2.974,-2.734001l0,3c1.016,0 2.004,-0.104 2.974,-0.265999z" fill="#472B45" id="svg_27"/>
     <path d="m15.562,-40.985001c0.002999,-0.005001 0.007,-0.010998 0.009999,-0.015999c-1.636999,-2.825001 -4.009,-5.167 -6.867,-6.750999c-0.814,3.16 -3.296,5.641998 -6.456,6.455997c1.584,2.858002 3.926,5.23 6.751,6.867001c0.005,-0.002998 0.011,-0.007 0.016,-0.009998c0.862,-3.183002 3.363,-5.684002 6.546,-6.546001z" fill="#787638" id="svg_28"/>
     <path d="m18,-72.500999c2.485001,0 4.5,2.014999 4.5,4.5c0,0.196999 -0.033001,0.385002 -0.059,0.574997c1.615,0.410004 3.141001,1.032005 4.547001,1.846001c0.207998,-0.772995 0.328999,-1.582001 0.328999,-2.420998c0,-5.146004 -4.171999,-9.317001 -9.316999,-9.317001c-0.839001,0 -1.646999,0.121002 -2.421,0.329002c0.813,1.405998 1.435999,2.932999 1.845999,4.545998c0.190001,-0.025002 0.378,-0.057999 0.575001,-0.057999z" fill="#EDA362" id="svg_29"/>
     <path d="m18,-63.500999c-0.197001,0 -0.385,-0.033001 -0.575001,-0.059002c-0.41,1.615002 -1.032,3.141003 -1.845999,4.547001c0.772999,0.208 1.581999,0.329002 2.421,0.329002c4.308001,0 7.921,-2.927002 8.988001,-6.896004c-1.406,-0.812996 -2.932001,-1.435997 -4.547001,-1.846001c-0.284,2.211006 -2.153,3.925003 -4.441,3.925003z" fill="#B47B79" id="svg_30"/>
     <path d="m8.683,-68.000999c0,0.838997 0.121,1.647003 0.329,2.420998c1.406,-0.812996 2.933,-1.435997 4.546,-1.846001c-0.023999,-0.189995 -0.058,-0.377998 -0.058,-0.574997c0,-2.288002 1.714,-4.155998 3.924999,-4.442001c-0.41,-1.612999 -1.032,-3.139999 -1.845999,-4.545998c-3.971001,1.066002 -6.896001,4.681 -6.896001,8.987999z" fill="#B47B79" id="svg_31"/>
     <path d="m15.562,-59.016998c0.005,0.001999 0.012,0.001999 0.017,0.003998c0.813,-1.405998 1.435999,-2.931999 1.845999,-4.547001c-2.020999,-0.259998 -3.605,-1.845997 -3.867,-3.866001c-1.613,0.410004 -3.139999,1.032005 -4.546,1.846001c0.000999,0.006004 0.002,0.012001 0.004,0.016998c2.713,1.575005 4.971001,3.834003 6.546,6.546005z" fill="#10927B" id="svg_32"/>
     <path d="m9.016,-65.563004c0.862,3.184002 3.363,5.685005 6.547,6.547005c-1.575999,-2.713001 -3.834,-4.972 -6.547,-6.547005z" fill="#3A4768" id="svg_33"/>
     <path d="m22.441,-67.426003c0.025,-0.189995 0.059,-0.377998 0.059,-0.574997c0,-2.485001 -2.014999,-4.5 -4.5,-4.5c-0.197001,0 -0.385,0.032997 -0.575001,0.057999c0.362001,1.423004 0.575001,2.905998 0.575001,4.442001c1.535999,0 3.018999,0.212997 4.441,0.574997z" fill="#B25B2D" id="svg_34"/>
     <path d="m17.424999,-63.560001c0.190001,0.025002 0.378,0.059002 0.575001,0.059002c2.288,0 4.157,-1.713997 4.441,-3.925003c-1.423,-0.362 -2.905001,-0.574997 -4.441,-0.574997c0,1.536003 -0.212999,3.018997 -0.575001,4.440998z" fill="#6C3147" id="svg_35"/>
     <path d="m17.424999,-72.443001c-2.210999,0.286003 -3.924999,2.153999 -3.924999,4.442001c0,0.196999 0.033,0.385002 0.058,0.574997c1.424001,-0.362 2.906001,-0.574997 4.442,-0.574997c0,-1.536003 -0.212999,-3.018997 -0.575001,-4.442001z" fill="#6C3147" id="svg_36"/>
     <path d="m17.424999,-63.560001c0.362001,-1.422001 0.575001,-2.904995 0.575001,-4.440998c-1.535999,0 -3.019,0.212997 -4.442,0.574997c0.261001,2.021004 1.846001,3.607002 3.867,3.866001z" fill="#606E66" id="svg_37"/>
     <path d="m22.5,-32.000999c0,2.484999 -2.014999,4.5 -4.5,4.5c-0.197001,0 -0.385,-0.033001 -0.575001,-0.058001c-0.41,1.613001 -1.032,3.139999 -1.845999,4.546c0.772999,0.208 1.581999,0.329 2.421,0.329c5.146,0 9.316999,-4.172001 9.316999,-9.316999c0,-0.839001 -0.121,-1.646999 -0.328999,-2.421001c-1.406,0.813 -2.932001,1.436001 -4.547001,1.846001c0.025999,0.189999 0.059,0.377998 0.059,0.575001z" fill="#EDA362" id="svg_38"/>
     <path d="m18,-41.318001c-0.839001,0 -1.646999,0.121002 -2.421,0.329002c0.813,1.405998 1.435999,2.932999 1.845999,4.545998c0.190001,-0.023998 0.378,-0.057999 0.575001,-0.057999c2.288,0 4.157,1.714001 4.441,3.924999c1.615,-0.41 3.141001,-1.032001 4.547001,-1.846001c-1.067001,-3.971001 -4.68,-6.896 -8.988001,-6.896z" fill="#B47B79" id="svg_39"/>
     <path d="m13.5,-32.000999c0,-0.197002 0.033,-0.385002 0.058,-0.575001c-1.613,-0.41 -3.139999,-1.032001 -4.546,-1.846001c-0.208,0.773003 -0.329,1.582001 -0.329,2.421001c0,4.307999 2.926001,7.921 6.896001,8.987999c0.813,-1.406 1.435999,-2.932999 1.845999,-4.546c-2.210999,-0.285 -3.924999,-2.153999 -3.924999,-4.441999z" fill="#B47B79" id="svg_40"/>
     <path d="m17.424999,-36.443001c-0.41,-1.612999 -1.032,-3.139999 -1.845999,-4.545998c-0.005,0.000999 -0.012,0.002998 -0.017,0.003998c-1.575,2.713001 -3.834001,4.972 -6.547,6.547001c-0.002001,0.005001 -0.003,0.011002 -0.004001,0.016998c1.406,0.813 2.933001,1.436001 4.546,1.846001c0.262,-2.021999 1.847,-3.606998 3.867999,-3.868z" fill="#10927B" id="svg_41"/>
     <path d="m9.016,-34.438c2.713,-1.575001 4.972,-3.834 6.547,-6.547001c-3.184,0.862 -5.684999,3.362999 -6.547,6.547001z" fill="#3A4768" id="svg_42"/>
     <path d="m17.424999,-27.559c0.190001,0.024 0.378,0.058001 0.575001,0.058001c2.485001,0 4.5,-2.015001 4.5,-4.5c0,-0.197002 -0.033001,-0.385002 -0.059,-0.575001c-1.423,0.362 -2.905001,0.575001 -4.441,0.575001c0,1.535999 -0.212999,3.018999 -0.575001,4.441999z" fill="#B25B2D" id="svg_43"/>
     <path d="m22.441,-32.576c-0.284,-2.210999 -2.153,-3.924999 -4.441,-3.924999c-0.197001,0 -0.385,0.033001 -0.575001,0.057999c0.362001,1.423 0.575001,2.906002 0.575001,4.442001c1.535999,0 3.018999,-0.213001 4.441,-0.575001z" fill="#6C3147" id="svg_44"/>
     <path d="m13.558,-32.576c-0.023999,0.189999 -0.058,0.377998 -0.058,0.575001c0,2.288 1.714,4.157 3.924999,4.441999c0.362001,-1.423 0.575001,-2.906 0.575001,-4.441999c-1.535999,0 -3.019,-0.213001 -4.442,-0.575001z" fill="#6C3147" id="svg_45"/>
     <path d="m13.558,-32.576c1.424001,0.362 2.906001,0.575001 4.442,0.575001c0,-1.535999 -0.212999,-3.019001 -0.575001,-4.442001c-2.020999,0.261002 -3.605999,1.846001 -3.867,3.867001z" fill="#606E66" id="svg_46"/>
     <path d="m8.705,-52.25c-2.58,1.43 -5.546,2.249001 -8.705,2.249001c3.159,0 6.125,0.819 8.705,2.249001c0.187,-0.721001 0.295,-1.471001 0.295,-2.249001c0,-0.777 -0.108,-1.528999 -0.295,-2.249001z" fill="#A11477" id="svg_47"/>
     <path d="m2.249,-58.706001c-0.72,-0.187 -1.471,-0.294998 -2.249,-0.294998l0,9c0,-3.159 0.819,-6.125 2.249,-8.705002z" fill="#A11477" id="svg_48"/>
     <path d="m2.249,-58.706001c-1.43,2.580002 -2.249,5.546001 -2.249,8.705002c3.159,0 6.125,-0.819 8.705,-2.249001c-0.814,-3.16 -3.296,-5.641998 -6.456,-6.456001z" fill="#387A80" id="svg_49"/>
     <path d="m0,-50.000999l0,9c0.778,0 1.529,-0.108002 2.249,-0.295002c-1.43,-2.580997 -2.249,-5.545998 -2.249,-8.704998z" fill="#A11477" id="svg_50"/>
     <path d="m2.249,-41.296001c3.16,-0.813999 5.642,-3.295998 6.456,-6.455997c-2.58,-1.43 -5.546,-2.249001 -8.705,-2.249001c0,3.159 0.819,6.124001 2.249,8.704998z" fill="#387A80" id="svg_51"/>
     <path d="m82,-41.318001c0.838997,0 1.647003,0.121002 2.420998,0.329002c0.001999,-0.004002 0.005005,-0.008003 0.007004,-0.012001c-0.565002,-0.977001 -1.039001,-2.011002 -1.415001,-3.091999c-0.330002,0.056 -0.667,0.091999 -1.013,0.091999c-3.313004,0 -6,-2.687 -6,-6s2.686996,-6 6,-6c0.346001,0 0.682999,0.035999 1.013,0.091999c0.375999,-1.081001 0.849998,-2.114998 1.415001,-3.091999c-0.001999,-0.004002 -0.005005,-0.007999 -0.007004,-0.012001c-0.772995,0.208 -1.582001,0.329002 -2.420998,0.329002c-4.306999,0 -7.921997,-2.927002 -8.987999,-6.896004c-5.381004,3.111 -9.012001,8.916 -9.012001,15.579002s3.630997,12.467999 9.012001,15.578999c1.066002,-3.971001 4.681,-6.896 8.987999,-6.896z" fill="#A2120F" id="svg_52"/>
     <path d="m82,-47.000999c-1.655998,0 -3,-1.343002 -3,-3c0,-1.656002 1.344002,-3 3,-3c0.091003,0 0.177002,0.02 0.265999,0.027c0.167999,-1.011002 0.417999,-1.990002 0.747002,-2.936001c-0.330002,-0.056 -0.667,-0.091999 -1.013,-0.091999c-3.313004,0 -6,2.687 -6,6s2.686996,6 6,6c0.346001,0 0.682999,-0.035999 1.013,-0.092003c-0.329002,-0.945 -0.579002,-1.924999 -0.747002,-2.934998c-0.088997,0.008999 -0.174995,0.028 -0.265999,0.028z" fill="#7F526A" id="svg_53"/>
     <path d="m79,-50.000999c0,1.656998 1.344002,3 3,3c0.091003,0 0.177002,-0.019001 0.265999,-0.026001c-0.162003,-0.970001 -0.265999,-1.959 -0.265999,-2.973999s0.103996,-2.004002 0.265999,-2.973c-0.088997,-0.007999 -0.174995,-0.027 -0.265999,-0.027c-1.655998,0 -3,1.343998 -3,3z" fill="#584B41" id="svg_54"/>
     <path d="m91.294998,-52.25c-2.859001,-1.584 -5.229996,-3.926998 -6.866997,-6.750999c-0.565002,0.977001 -1.039001,2.010998 -1.415001,3.091999c2.830002,0.482002 4.987,2.939999 4.987,5.908001s-2.156998,5.425999 -4.987,5.908001c0.375999,1.080997 0.849998,2.114998 1.415001,3.091999c1.637001,-2.825001 4.007996,-5.167 6.866997,-6.750999c-0.185997,-0.721001 -0.294998,-1.471001 -0.294998,-2.249001c0,-0.777 0.109001,-1.528999 0.294998,-2.249001z" fill="#531045" id="svg_55"/>
     <path d="m88,-50.000999c0,-2.968002 -2.156998,-5.425999 -4.987,-5.908001c-0.329002,0.945 -0.579002,1.924999 -0.747002,2.936001c1.529999,0.135998 2.734001,1.406998 2.734001,2.972s-1.204002,2.836998 -2.734001,2.973999c0.167999,1.010002 0.417999,1.989002 0.747002,2.935001c2.830002,-0.483002 4.987,-2.941002 4.987,-5.909z" fill="#654C76" id="svg_56"/>
     <path d="m82.265999,-47.027c1.529999,-0.137001 2.734001,-1.409 2.734001,-2.973999s-1.204002,-2.836002 -2.734001,-2.973c-0.162003,0.968998 -0.265999,1.958 -0.265999,2.973s0.103996,2.003998 0.265999,2.973999z" fill="#472B45" id="svg_57"/>
     <path d="m84.420998,-76.988998c3.970001,1.066002 6.896004,4.681999 6.896004,8.987999c0,0.838997 -0.121002,1.647003 -0.329002,2.420998c0.003998,0.001999 0.008003,0.005005 0.012001,0.007004c0.976997,-0.565002 2.010002,-1.039001 3.092003,-1.415001c-0.056999,-0.330002 -0.092003,-0.667 -0.092003,-1.013c0,-3.313004 2.686996,-6 6,-6l0,-12c-6.663002,0 -12.467003,3.630997 -15.579002,9.012001z" fill="#A2120F" id="svg_58"/>
     <path d="m97,-68.000999c0,-1.655998 1.344002,-3 3,-3l0,-3c-3.313004,0 -6,2.686996 -6,6c0,0.346001 0.035004,0.682999 0.092003,1.013c0.945,-0.329002 1.925995,-0.578003 2.935997,-0.747002c-0.008003,-0.088997 -0.028,-0.175003 -0.028,-0.265999z" fill="#7F526A" id="svg_59"/>
     <path d="m100,-71.000999c-1.655998,0 -3,1.344002 -3,3c0,0.090996 0.019997,0.177002 0.027,0.265999c0.969002,-0.161003 1.957001,-0.265999 2.973,-0.265999l0,-3z" fill="#56254B" id="svg_60"/>
     <path d="m84.420998,-59.013c0.001999,0.004002 0.005005,0.007999 0.007004,0.012001c0.003998,-0.005001 0.006996,-0.011002 0.010002,-0.015999c-0.006004,0.001999 -0.012001,0.001999 -0.017006,0.003998z" fill="#FFFFFF" id="svg_61"/>
     <path d="m91,-65.572998c-0.003998,-0.001999 -0.008003,-0.005005 -0.012001,-0.007004c-0.001999,0.006004 -0.001999,0.012001 -0.003998,0.016998c0.004997,-0.002998 0.010002,-0.005997 0.015999,-0.009995z" fill="#FFFFFF" id="svg_62"/>
     <path d="m97.750999,-58.706001c0.720001,-0.187 1.472,-0.294998 2.249001,-0.294998l0,-3c-2.968002,0 -5.426003,-2.156998 -5.907997,-4.987c-1.082001,0.375999 -2.115005,0.849998 -3.092003,1.415001c2.823997,1.635998 5.167999,4.008999 6.750999,6.866997z" fill="#531045" id="svg_63"/>
     <path d="m100,-62.000999l0,-3c-1.565002,0 -2.835999,-1.204002 -2.973,-2.734001c-1.010002,0.168999 -1.989998,0.417999 -2.935997,0.747002c0.482994,2.830002 2.940994,4.987 5.908997,4.987z" fill="#654C76" id="svg_64"/>
     <path d="m97.027,-67.735001c0.137001,1.529999 1.406998,2.734001 2.973,2.734001l0,-3c-1.015999,0 -2.003998,0.104996 -2.973,0.265999z" fill="#472B45" id="svg_65"/>
     <path d="m84.438004,-59.016998c-0.003006,0.004997 -0.006004,0.010998 -0.010002,0.015999c1.637001,2.824001 4.007996,5.167 6.866997,6.750999c0.814003,-3.16 3.296005,-5.641998 6.456001,-6.456001c-1.583,-2.857998 -3.927002,-5.23 -6.750999,-6.866997c-0.005997,0.003998 -0.011002,0.006996 -0.015999,0.009995c-0.862,3.183002 -3.362999,5.684002 -6.545998,6.546005z" fill="#787638" id="svg_66"/>
     <path d="m94,-32.000999c0,-0.346001 0.035004,-0.682999 0.092003,-1.013c-1.082001,-0.375999 -2.115005,-0.849998 -3.092003,-1.415001c-0.003998,0.002003 -0.008003,0.005001 -0.012001,0.007c0.208,0.773003 0.329002,1.582001 0.329002,2.421001c0,4.307999 -2.927002,7.921 -6.896004,8.987999c3.112,5.382 8.916,9.012 15.579002,9.012l0,-11.999999c-3.313004,0 -6,-2.687 -6,-6z" fill="#A2120F" id="svg_67"/>
     <path d="m97,-32.000999c0,-0.091 0.019997,-0.177002 0.027,-0.265999c-1.010002,-0.169003 -1.989998,-0.418003 -2.935997,-0.747002c-0.056,0.330002 -0.091003,0.667 -0.091003,1.013c0,3.313 2.686996,6 6,6l0,-3c-1.655998,0 -3,-1.343 -3,-3z" fill="#7F526A" id="svg_68"/>
     <path d="m100,-29.000999l0,-3c-1.015999,0 -2.003998,-0.104 -2.973,-0.265999c-0.007004,0.088997 -0.027,0.174999 -0.027,0.265999c0,1.657 1.344002,3 3,3z" fill="#56254B" id="svg_69"/>
     <path d="m90.987999,-34.422001c0.003998,-0.001999 0.008003,-0.004997 0.012001,-0.007c-0.005997,-0.002998 -0.011002,-0.007 -0.015999,-0.009998c0.001999,0.005001 0.001999,0.010998 0.003998,0.016998z" fill="#FFFFFF" id="svg_70"/>
     <path d="m84.438004,-40.985001c-0.003006,-0.005001 -0.006004,-0.010998 -0.010002,-0.015999c-0.001999,0.003998 -0.005005,0.007999 -0.007004,0.012001c0.005005,0.000999 0.011002,0.002998 0.017006,0.003998z" fill="#FFFFFF" id="svg_71"/>
     <path d="m91,-34.429001c0.976997,0.565002 2.010002,1.039001 3.092003,1.415001c0.481995,-2.830002 2.939995,-4.987 5.907997,-4.987l0,-3c-0.777,0 -1.528999,-0.108002 -2.249001,-0.295002c-1.583,2.858002 -3.927002,5.231003 -6.750999,6.867001z" fill="#531045" id="svg_72"/>
     <path d="m94.092003,-33.014c0.945,0.328999 1.925995,0.577999 2.935997,0.747002c0.137001,-1.530003 1.406998,-2.734001 2.973,-2.734001l0,-3c-2.969002,0 -5.427002,2.156998 -5.908997,4.987z" fill="#654C76" id="svg_73"/>
     <path d="m100,-35.000999c-1.565002,0 -2.835999,1.203999 -2.973,2.734001c0.969002,0.160999 1.957001,0.265999 2.973,0.265999l0,-3z" fill="#472B45" id="svg_74"/>
     <path d="m97.750999,-41.296001c-3.159996,-0.813999 -5.641998,-3.295998 -6.456001,-6.455997c-2.859001,1.584 -5.229996,3.925999 -6.866997,6.750999c0.003998,0.005001 0.006996,0.010998 0.010002,0.015999c3.183998,0.862 5.684998,3.362999 6.546997,6.547001c0.004997,0.002998 0.010002,0.007 0.015999,0.009998c2.822998,-1.636997 5.167,-4.009998 6.75,-6.868z" fill="#787638" id="svg_75"/>
     <path d="m77.5,-68.000999c0,-2.485001 2.014999,-4.5 4.5,-4.5c0.196999,0 0.385002,0.032997 0.574997,0.057999c0.410004,-1.612999 1.032005,-3.139999 1.846001,-4.545998c-0.772995,-0.208 -1.582001,-0.329002 -2.420998,-0.329002c-5.146004,0 -9.317001,4.170998 -9.317001,9.317001c0,0.838997 0.121002,1.647003 0.329002,2.420998c1.405998,-0.812996 2.931999,-1.435997 4.546997,-1.846001c-0.026001,-0.189995 -0.058998,-0.377998 -0.058998,-0.574997z" fill="#EDA362" id="svg_76"/>
     <path d="m82,-58.683998c0.838997,0 1.647003,-0.121002 2.420998,-0.329002c-0.812996,-1.405998 -1.435997,-2.931999 -1.846001,-4.547001c-0.189995,0.025002 -0.377998,0.059002 -0.574997,0.059002c-2.288002,0 -4.155998,-1.713997 -4.441002,-3.925003c-1.614998,0.410004 -3.140999,1.032005 -4.546997,1.846001c1.066002,3.970001 4.681,6.896004 8.987999,6.896004z" fill="#B47B79" id="svg_77"/>
     <path d="m86.5,-68.000999c0,0.196999 -0.032997,0.385002 -0.058998,0.574997c1.614998,0.410004 3.140999,1.032005 4.546997,1.846001c0.208,-0.772995 0.329002,-1.582001 0.329002,-2.420998c0,-4.306999 -2.927002,-7.921997 -6.896004,-8.987999c-0.812996,1.405998 -1.435997,2.932999 -1.846001,4.545998c2.211006,0.286003 3.925003,2.153999 3.925003,4.442001z" fill="#B47B79" id="svg_78"/>
     <path d="m82.574997,-63.560001c0.410004,1.615002 1.032005,3.141003 1.846001,4.547001c0.005005,-0.001999 0.011002,-0.001999 0.017006,-0.003998c1.574997,-2.713001 3.834,-4.972 6.546997,-6.547005c0.001999,-0.004997 0.001999,-0.010994 0.003998,-0.016998c-1.405998,-0.812996 -2.931999,-1.435997 -4.546997,-1.846001c-0.260002,2.022003 -1.846001,3.608002 -3.867004,3.867001z" fill="#10927B" id="svg_79"/>
     <path d="m90.984001,-65.563004c-2.712997,1.575005 -4.972,3.834003 -6.547005,6.547005c3.184006,-0.863003 5.685005,-3.364002 6.547005,-6.547005z" fill="#3A4768" id="svg_80"/>
     <path d="m82.574997,-72.443001c-0.189995,-0.024002 -0.377998,-0.057999 -0.574997,-0.057999c-2.485001,0 -4.5,2.014999 -4.5,4.5c0,0.196999 0.032997,0.385002 0.058998,0.574997c1.423004,-0.362 2.904999,-0.574997 4.441002,-0.574997c0,-1.536003 0.212997,-3.018997 0.574997,-4.442001z" fill="#B25B2D" id="svg_81"/>
     <path d="m77.558998,-67.426003c0.285004,2.211006 2.153,3.925003 4.441002,3.925003c0.196999,0 0.385002,-0.033001 0.574997,-0.059002c-0.362,-1.422001 -0.574997,-2.904995 -0.574997,-4.440998c-1.536003,0 -3.018997,0.212997 -4.441002,0.574997z" fill="#6C3147" id="svg_82"/>
     <path d="m86.441002,-67.426003c0.025002,-0.189995 0.058998,-0.377998 0.058998,-0.574997c0,-2.288002 -1.713997,-4.155998 -3.925003,-4.442001c-0.362,1.423004 -0.574997,2.905998 -0.574997,4.442001c1.536003,0 3.018997,0.212997 4.441002,0.574997z" fill="#6C3147" id="svg_83"/>
     <path d="m86.441002,-67.426003c-1.423004,-0.362 -2.904999,-0.574997 -4.441002,-0.574997c0,1.536003 0.212997,3.018997 0.574997,4.440998c2.021004,-0.258999 3.607002,-1.844997 3.866005,-3.866001z" fill="#606E66" id="svg_84"/>
     <path d="m82,-27.500999c-2.485001,0 -4.5,-2.015001 -4.5,-4.5c0,-0.197002 0.032997,-0.385002 0.058998,-0.575001c-1.614998,-0.41 -3.140999,-1.032001 -4.546997,-1.846001c-0.208,0.773003 -0.329002,1.582001 -0.329002,2.421001c0,5.146 4.170998,9.316999 9.317001,9.316999c0.838997,0 1.647003,-0.121 2.420998,-0.329c-0.812996,-1.406 -1.435997,-2.932999 -1.846001,-4.546c-0.189995,0.025 -0.377998,0.058001 -0.574997,0.058001z" fill="#EDA362" id="svg_85"/>
     <path d="m82,-36.500999c0.196999,0 0.385002,0.033001 0.574997,0.057999c0.410004,-1.612999 1.032005,-3.139999 1.846001,-4.545998c-0.772995,-0.208 -1.582001,-0.329002 -2.420998,-0.329002c-4.306999,0 -7.921997,2.926003 -8.987999,6.896c1.405998,0.813 2.931999,1.436001 4.546997,1.846001c0.285004,-2.210999 2.153,-3.924999 4.441002,-3.924999z" fill="#B47B79" id="svg_86"/>
     <path d="m86.5,-32.000999c0,2.288 -1.713997,4.157 -3.925003,4.441999c0.410004,1.613001 1.032005,3.139999 1.846001,4.546c3.970001,-1.066999 6.896004,-4.681 6.896004,-8.987999c0,-0.839001 -0.121002,-1.646999 -0.329002,-2.421001c-1.405998,0.813 -2.931999,1.436001 -4.546997,1.846001c0.026001,0.189999 0.058998,0.377998 0.058998,0.575001z" fill="#B47B79" id="svg_87"/>
     <path d="m84.438004,-40.985001c-0.006004,-0.000999 -0.012001,-0.002998 -0.017006,-0.003998c-0.812996,1.405998 -1.435997,2.932999 -1.846001,4.545998c2.021004,0.262001 3.606003,1.847 3.866005,3.867001c1.614998,-0.41 3.140999,-1.032001 4.546997,-1.846001c-0.001999,-0.006001 -0.001999,-0.011997 -0.003998,-0.016998c-2.712997,-1.575001 -4.971001,-3.833 -6.545998,-6.546001z" fill="#10927B" id="svg_88"/>
     <path d="m90.984001,-34.438c-0.862,-3.184002 -3.362999,-5.685001 -6.547005,-6.547001c1.576004,2.713001 3.834007,4.971001 6.547005,6.547001z" fill="#3A4768" id="svg_89"/>
     <path d="m77.558998,-32.576c-0.025002,0.189999 -0.058998,0.377998 -0.058998,0.575001c0,2.484999 2.014999,4.5 4.5,4.5c0.196999,0 0.385002,-0.033001 0.574997,-0.058001c-0.362,-1.423 -0.574997,-2.906 -0.574997,-4.441999c-1.536003,0 -3.018997,-0.213001 -4.441002,-0.575001z" fill="#B25B2D" id="svg_90"/>
     <path d="m77.558998,-32.576c1.423004,0.362 2.904999,0.575001 4.441002,0.575001c0,-1.535999 0.212997,-3.019001 0.574997,-4.442001c-0.189995,-0.023998 -0.377998,-0.057999 -0.574997,-0.057999c-2.288002,0 -4.155998,1.714001 -4.441002,3.924999z" fill="#6C3147" id="svg_91"/>
     <path d="m82.574997,-27.559c2.211006,-0.285 3.925003,-2.153999 3.925003,-4.441999c0,-0.197002 -0.032997,-0.385002 -0.058998,-0.575001c-1.423004,0.362 -2.904999,0.575001 -4.441002,0.575001c0,1.535999 0.212997,3.018999 0.574997,4.441999z" fill="#6C3147" id="svg_92"/>
     <path d="m86.441002,-32.576c-0.260002,-2.021 -1.846001,-3.605 -3.866005,-3.867001c-0.362,1.423 -0.574997,2.906002 -0.574997,4.442001c1.536003,0 3.018997,-0.213001 4.441002,-0.575001z" fill="#606E66" id="svg_93"/>
     <path d="m91,-50.000999c0,0.778 0.109001,1.528 0.294998,2.249001c2.580002,-1.43 5.546005,-2.249001 8.705002,-2.249001c-3.158997,0 -6.125,-0.819 -8.705002,-2.249001c-0.185997,0.720001 -0.294998,1.472 -0.294998,2.249001z" fill="#A11477" id="svg_94"/>
     <path d="m100,-50.000999l0,-9c-0.777,0 -1.528999,0.107998 -2.249001,0.294998c1.43,2.580002 2.249001,5.546001 2.249001,8.705002z" fill="#A11477" id="svg_95"/>
     <path d="m91.294998,-52.25c2.580002,1.43 5.546005,2.249001 8.705002,2.249001c0,-3.159 -0.819,-6.125 -2.249001,-8.705002c-3.159996,0.814003 -5.641998,3.296001 -6.456001,6.456001z" fill="#387A80" id="svg_96"/>
     <path d="m97.750999,-41.296001c0.720001,0.187 1.472,0.295002 2.249001,0.295002l0,-9c0,3.159 -0.819,6.124001 -2.249001,8.704998z" fill="#A11477" id="svg_97"/>
     <path d="m97.750999,-41.296001c1.43,-2.580997 2.249001,-5.545998 2.249001,-8.704998c-3.158997,0 -6.125,0.819 -8.705002,2.249001c0.814003,3.16 3.296005,5.641998 6.456001,6.455997z" fill="#387A80" id="svg_98"/>
     <path d="m41.317001,-18.000999c0,0.838999 -0.121002,1.646999 -0.329002,2.421c0.004002,0.002 0.007999,0.005 0.012001,0.007c0.977001,-0.565001 2.009998,-1.039 3.091999,-1.415001c-0.056999,-0.33 -0.091999,-0.667 -0.091999,-1.012999c0,-3.313 2.687,-6 6,-6s6,2.687 6,6c0,0.345999 -0.035,0.682999 -0.091999,1.012999c1.082001,0.376001 2.114998,0.85 3.091999,1.415001c0.004002,-0.002 0.007999,-0.005 0.012001,-0.007c-0.208,-0.773001 -0.329002,-1.582001 -0.329002,-2.421c0,-4.308001 2.927002,-7.921001 6.896004,-8.988001c-3.112003,-5.381998 -8.916004,-9.011999 -15.579002,-9.011999s-12.466999,3.630001 -15.578999,9.011999c3.969997,1.066999 6.896,4.68 6.896,8.988001z" fill="#A2120F" id="svg_99"/>
     <path d="m47,-18.000999c0,-1.657001 1.344002,-3 3,-3s3,1.342999 3,3c0,0.091 -0.02,0.177 -0.027,0.265999c1.010002,0.169001 1.990002,0.418001 2.936001,0.747c0.056,-0.33 0.091,-0.667 0.091,-1.012999c0,-3.313 -2.687,-6 -6,-6s-6,2.687 -6,6c0,0.345999 0.035,0.682999 0.091999,1.012999c0.945,-0.328999 1.926003,-0.577999 2.936001,-0.747c-0.007999,-0.088999 -0.028,-0.174999 -0.028,-0.265999z" fill="#7F526A" id="svg_100"/>
     <path d="m50,-21.000999c-1.655998,0 -3,1.342999 -3,3c0,0.091 0.02,0.177 0.027,0.265999c0.968998,-0.160999 1.957001,-0.265999 2.973,-0.265999s2.004002,0.104 2.973,0.265999c0.007,-0.088999 0.027,-0.174999 0.027,-0.265999c0,-1.657001 -1.344002,-3 -3,-3z" fill="#584B41" id="svg_101"/>
     <path d="m47.750999,-8.706c0.720001,-0.186999 1.472,-0.295 2.249001,-0.295s1.528999,0.108001 2.249001,0.295c1.583,-2.858 3.926998,-5.23 6.750999,-6.867c-0.977001,-0.565001 -2.009998,-1.039 -3.091999,-1.415001c-0.482002,2.830001 -2.940002,4.987 -5.908001,4.987s-5.425999,-2.157 -5.908001,-4.987c-1.082001,0.376001 -2.114998,0.85 -3.091999,1.415001c2.824001,1.636 5.167999,4.009 6.750999,6.867z" fill="#531045" id="svg_102"/>
     <path d="m50,-12.001c2.967999,0 5.425999,-2.157 5.908001,-4.987c-0.945,-0.328999 -1.926003,-0.577999 -2.936001,-0.747c-0.137001,1.530001 -1.407001,2.734 -2.973,2.734s-2.836002,-1.204 -2.973,-2.734c-1.010002,0.169001 -1.990002,0.418001 -2.936001,0.747c0.484001,2.830001 2.942001,4.987 5.91,4.987z" fill="#654C76" id="svg_103"/>
     <path d="m47.027,-17.735001c0.137001,1.530001 1.406998,2.734 2.973,2.734s2.835999,-1.204 2.973,-2.734c-0.968998,-0.160999 -1.957001,-0.265999 -2.973,-0.265999s-2.004002,0.105 -2.973,0.265999z" fill="#472B45" id="svg_104"/>
     <path d="m32,-6.001c0.346001,0 0.682999,0.036 1.013,0.092c0.375999,-1.081 0.849998,-2.115 1.415001,-3.092c-0.002003,-0.004 -0.005001,-0.007999 -0.007,-0.011999c-0.774002,0.207999 -1.582001,0.329 -2.421001,0.329c-4.308001,0 -7.921,-2.926 -8.988001,-6.896c-5.382,3.111 -9.011999,8.916 -9.011999,15.579l12,0c0,-3.313 2.687,-6 6,-6z" fill="#A2120F" id="svg_105"/>
     <path d="m32,-3.001c0.091,0 0.176998,0.019 0.265999,0.026c0.167999,-1.01 0.417999,-1.989 0.747002,-2.935c-0.330002,-0.055 -0.667,-0.091 -1.013,-0.091c-3.313,0 -6,2.687 -6,6l3,0c0,-1.657 1.343,-3 3,-3z" fill="#7F526A" id="svg_106"/>
     <path d="m29,-0.001l3,0c0,-1.015 0.104,-2.004 0.265999,-2.974c-0.089001,-0.007 -0.174999,-0.026 -0.265999,-0.026c-1.657,0 -3,1.343 -3,3z" fill="#56254B" id="svg_107"/>
     <path d="m34.421001,-9.013c0.001999,0.004 0.004997,0.007999 0.007,0.011999c0.003998,-0.004999 0.007,-0.011 0.009998,-0.016c-0.006001,0.001 -0.012001,0.003 -0.016998,0.004001z" fill="#FFFFFF" id="svg_108"/>
     <path d="m41,-15.573c-0.004002,-0.002 -0.007999,-0.005 -0.012001,-0.007c-0.001999,0.006 -0.001999,0.012 -0.003998,0.017c0.004997,-0.003 0.009998,-0.007 0.015999,-0.01z" fill="#FFFFFF" id="svg_109"/>
     <path d="m34.428001,-9.001c-0.565002,0.977 -1.039001,2.011001 -1.415001,3.092c2.829998,0.482 4.987,2.94 4.987,5.908l3,0c0,-0.778 0.109001,-1.528 0.294998,-2.249c-2.858997,-1.584 -5.230999,-3.926 -6.866997,-6.751z" fill="#531045" id="svg_110"/>
     <path d="m33.013,-5.909c-0.329002,0.945 -0.579002,1.925 -0.747002,2.935c1.530003,0.136 2.734001,1.408 2.734001,2.973l3,0c0,-2.968 -2.157001,-5.426 -4.987,-5.908z" fill="#654C76" id="svg_111"/>
     <path d="m35,-0.001c0,-1.565 -1.203999,-2.837 -2.734001,-2.974c-0.161999,0.97 -0.265999,1.959 -0.265999,2.974l3,0z" fill="#472B45" id="svg_112"/>
     <path d="m41.294998,-2.25c0.814003,-3.16 3.296001,-5.642 6.456001,-6.456c-1.583,-2.858 -3.926998,-5.23 -6.750999,-6.867c-0.006001,0.003 -0.011002,0.007 -0.015999,0.01c-0.862,3.184 -3.363003,5.684999 -6.547001,6.547c-0.003002,0.005 -0.006001,0.011 -0.010002,0.016c1.637001,2.824 4.009003,5.166 6.868,6.75z" fill="#787638" id="svg_113"/>
     <path d="m76.987999,-15.58c-1.066002,3.971 -4.681,6.896 -8.987999,6.896c-0.838997,0 -1.647003,-0.121 -2.420998,-0.329c-0.001999,0.004 -0.005005,0.007999 -0.007004,0.011999c0.565002,0.977 1.039001,2.011001 1.415001,3.092c0.330002,-0.056 0.667,-0.092 1.013,-0.092c3.313004,0 6,2.687 6,6l12,0c0,-6.663 -3.630997,-12.468 -9.012001,-15.579z" fill="#A2120F" id="svg_114"/>
     <path d="m68,-3.001c1.655998,0 3,1.343 3,3l3,0c0,-3.313 -2.686996,-6 -6,-6c-0.346001,0 -0.682999,0.036 -1.013,0.092c0.329002,0.945 0.579002,1.925 0.747002,2.935c0.088997,-0.008 0.174995,-0.027 0.265999,-0.027z" fill="#7F526A" id="svg_115"/>
     <path d="m71,-0.001c0,-1.657 -1.344002,-3 -3,-3c-0.091003,0 -0.177002,0.019 -0.265999,0.026c0.162003,0.97 0.265999,1.959 0.265999,2.974l3,0z" fill="#56254B" id="svg_116"/>
     <path d="m65.571999,-9.001c0.001999,-0.004 0.005005,-0.007999 0.007004,-0.011999c-0.005005,-0.001 -0.011002,-0.003 -0.017006,-0.004001c0.003006,0.005 0.006004,0.011001 0.010002,0.016z" fill="#FFFFFF" id="svg_117"/>
     <path d="m59.012001,-15.58c-0.004002,0.002 -0.007999,0.005 -0.012001,0.007c0.006001,0.003 0.011002,0.007 0.015999,0.01c-0.001999,-0.005 -0.001999,-0.011001 -0.003998,-0.017z" fill="#FFFFFF" id="svg_118"/>
     <path d="m58.705002,-2.25c0.185997,0.721 0.294998,1.471 0.294998,2.249l3,0c0,-2.968 2.156998,-5.426 4.987,-5.908c-0.375999,-1.081 -0.849998,-2.115 -1.415001,-3.092c-1.635998,2.825 -4.007999,5.167 -6.866997,6.751z" fill="#531045" id="svg_119"/>
     <path d="m62,-0.001l3,0c0,-1.565 1.204002,-2.837 2.734001,-2.974c-0.167999,-1.01 -0.417999,-1.989 -0.747002,-2.935c-2.830002,0.483 -4.987,2.941 -4.987,5.909z" fill="#654C76" id="svg_120"/>
     <path d="m67.734001,-2.975c-1.529999,0.137 -2.734001,1.409 -2.734001,2.974l3,0c0,-1.015 -0.103996,-2.004 -0.265999,-2.974z" fill="#472B45" id="svg_121"/>
     <path d="m59.015999,-15.563c-0.004997,-0.003 -0.009998,-0.007 -0.015999,-0.01c-2.824001,1.637 -5.167999,4.009 -6.750999,6.867c3.16,0.814 5.641998,3.296 6.456001,6.456c2.858997,-1.584 5.23,-3.926 6.866997,-6.751c-0.003998,-0.004999 -0.006996,-0.011 -0.010002,-0.016c-3.182995,-0.862 -5.683998,-3.363 -6.545998,-6.546z" fill="#787638" id="svg_122"/>
     <path d="m27.5,-18.000999c0,-2.485001 2.014999,-4.5 4.5,-4.5c0.196999,0 0.384998,0.032999 0.575001,0.057999c0.41,-1.612999 1.031998,-3.139999 1.846001,-4.546c-0.773003,-0.208 -1.582001,-0.329 -2.421001,-0.329c-5.146,0 -9.316999,4.172001 -9.316999,9.317001c0,0.838999 0.121,1.646999 0.328999,2.421c1.406,-0.813 2.933001,-1.436001 4.546001,-1.846001c-0.025,-0.189999 -0.058001,-0.378 -0.058001,-0.574999z" fill="#EDA362" id="svg_123"/>
     <path d="m36.5,-18.000999c0,0.196999 -0.033001,0.385 -0.058998,0.574999c1.614998,0.41 3.140999,1.032001 4.546997,1.846001c0.208,-0.773001 0.329002,-1.582001 0.329002,-2.421c0,-4.308001 -2.927002,-7.921001 -6.896,-8.988001c-0.813,1.406 -1.436001,2.933001 -1.846001,4.546c2.210999,0.285 3.924999,2.154001 3.924999,4.442001z" fill="#B47B79" id="svg_124"/>
     <path d="m32,-8.684c0.839001,0 1.646999,-0.121 2.421001,-0.329c-0.813,-1.406 -1.436001,-2.933001 -1.846001,-4.546c-0.190002,0.024 -0.378002,0.058 -0.575001,0.058c-2.288,0 -4.157,-1.714 -4.441999,-3.925c-1.613001,0.41 -3.140001,1.032001 -4.546001,1.846001c1.067001,3.971 4.68,6.896 8.988001,6.896z" fill="#B47B79" id="svg_125"/>
     <path d="m40.984001,-15.563c0.001999,-0.005 0.001999,-0.011001 0.003998,-0.017c-1.405998,-0.813 -2.931999,-1.436001 -4.546997,-1.846001c-0.260002,2.021001 -1.846001,3.605 -3.866001,3.867001c0.41,1.613 1.031998,3.14 1.846001,4.546c0.004997,-0.001 0.010998,-0.003 0.016998,-0.004001c1.575001,-2.712 3.833,-4.971 6.546001,-6.546z" fill="#10927B" id="svg_126"/>
     <path d="m34.438,-9.017c3.184002,-0.862 5.685001,-3.363 6.547001,-6.547c-2.714001,1.576 -4.972,3.835 -6.547001,6.547z" fill="#3A4768" id="svg_127"/>
     <path d="m32.575001,-22.443001c-0.190002,-0.023998 -0.378002,-0.057999 -0.575001,-0.057999c-2.485001,0 -4.5,2.014999 -4.5,4.5c0,0.196999 0.033001,0.385 0.058001,0.574999c1.424,-0.362 2.906,-0.574999 4.441999,-0.574999c0,-1.536001 0.213001,-3.019001 0.575001,-4.442001z" fill="#B25B2D" id="svg_128"/>
     <path d="m36.441002,-17.426001c0.024998,-0.189999 0.058998,-0.378 0.058998,-0.574999c0,-2.288 -1.714001,-4.157001 -3.924999,-4.442001c-0.362,1.423 -0.575001,2.906 -0.575001,4.442001c1.535999,0 3.019001,0.212999 4.441002,0.574999z" fill="#6C3147" id="svg_129"/>
     <path d="m27.558001,-17.426001c0.285,2.211 2.153999,3.925 4.441999,3.925c0.196999,0 0.384998,-0.033 0.575001,-0.058c-0.362,-1.423 -0.575001,-2.906 -0.575001,-4.441999c-1.535999,0 -3.018999,0.212999 -4.441999,0.574999z" fill="#6C3147" id="svg_130"/>
     <path d="m36.441002,-17.426001c-1.423,-0.362 -2.905003,-0.574999 -4.441002,-0.574999c0,1.535999 0.213001,3.018999 0.575001,4.441999c2.021,-0.261 3.606998,-1.846 3.866001,-3.867001z" fill="#606E66" id="svg_131"/>
     <path d="m68,-22.500999c2.485001,0 4.5,2.014999 4.5,4.5c0,0.196999 -0.032997,0.385 -0.058998,0.574999c1.614998,0.41 3.140999,1.032001 4.546997,1.846001c0.208,-0.773001 0.329002,-1.582001 0.329002,-2.421c0,-5.146 -4.170998,-9.317001 -9.317001,-9.317001c-0.838997,0 -1.647003,0.121 -2.420998,0.329c0.812996,1.406 1.435997,2.933001 1.846001,4.546c0.189995,-0.025 0.377998,-0.057999 0.574997,-0.057999z" fill="#EDA362" id="svg_132"/>
     <path d="m58.682999,-18.000999c0,0.838999 0.121002,1.646999 0.329002,2.421c1.405998,-0.813 2.931999,-1.436001 4.546997,-1.846001c-0.024998,-0.189999 -0.058998,-0.378 -0.058998,-0.574999c0,-2.288 1.713997,-4.157001 3.925003,-4.442001c-0.410004,-1.612999 -1.032005,-3.139999 -1.846001,-4.546c-3.970001,1.066999 -6.896004,4.68 -6.896004,8.988001z" fill="#B47B79" id="svg_133"/>
     <path d="m68,-13.501c-0.196999,0 -0.385002,-0.033 -0.574997,-0.058c-0.410004,1.613 -1.032005,3.14 -1.846001,4.546c0.773994,0.207999 1.582001,0.329 2.420998,0.329c4.306999,0 7.921997,-2.926 8.987999,-6.896c-1.405998,-0.813 -2.931999,-1.436001 -4.546997,-1.846001c-0.285004,2.211 -2.153,3.925 -4.441002,3.925z" fill="#B47B79" id="svg_134"/>
     <path d="m63.558998,-17.426001c-1.614998,0.41 -3.140999,1.032001 -4.546997,1.846001c0.001999,0.006 0.001999,0.012 0.003998,0.017c2.713001,1.575 4.972,3.834 6.547005,6.547c0.005997,0.000999 0.011993,0.003 0.016998,0.004c0.812996,-1.406 1.435997,-2.933 1.846001,-4.546c-2.022003,-0.262 -3.608002,-1.847 -3.867004,-3.868001z" fill="#10927B" id="svg_135"/>
     <path d="m65.561996,-9.017c-1.574997,-2.712999 -3.833996,-4.972 -6.546997,-6.547c0.862999,3.184 3.364002,5.685 6.546997,6.547z" fill="#3A4768" id="svg_136"/>
     <path d="m72.441002,-17.426001c0.025002,-0.189999 0.058998,-0.378 0.058998,-0.574999c0,-2.485001 -2.014999,-4.5 -4.5,-4.5c-0.196999,0 -0.385002,0.032999 -0.574997,0.057999c0.362,1.423 0.574997,2.906 0.574997,4.442001c1.536003,0 3.018997,0.212999 4.441002,0.574999z" fill="#B25B2D" id="svg_137"/>
     <path d="m67.425003,-22.443001c-2.211006,0.285 -3.925003,2.154001 -3.925003,4.442001c0,0.196999 0.033001,0.385 0.058998,0.574999c1.423004,-0.362 2.904999,-0.574999 4.441002,-0.574999c0,-1.536001 -0.212997,-3.019001 -0.574997,-4.442001z" fill="#6C3147" id="svg_138"/>
     <path d="m67.425003,-13.559c0.189995,0.024 0.377998,0.058 0.574997,0.058c2.288002,0 4.155998,-1.714 4.441002,-3.925c-1.423004,-0.362 -2.904999,-0.574999 -4.441002,-0.574999c0,1.535999 -0.212997,3.018999 -0.574997,4.441999z" fill="#6C3147" id="svg_139"/>
     <path d="m67.425003,-13.559c0.362,-1.423 0.574997,-2.906 0.574997,-4.441999c-1.536003,0 -3.018997,0.212999 -4.441002,0.574999c0.259003,2.021001 1.845001,3.606001 3.866005,3.867001z" fill="#606E66" id="svg_140"/>
     <path d="m47.750999,-8.706c1.43,2.581 2.249001,5.546 2.249001,8.705c0,-3.159 0.819,-6.124 2.249001,-8.705c-0.720001,-0.186999 -1.472,-0.295 -2.249001,-0.295s-1.528999,0.108001 -2.249001,0.295z" fill="#A11477" id="svg_141"/>
     <path d="m41.294998,-2.25c-0.185997,0.721 -0.294998,1.471 -0.294998,2.249l9,0c-3.159,0 -6.125,-0.819 -8.705002,-2.249z" fill="#A11477" id="svg_142"/>
     <path d="m41.294998,-2.25c2.580002,1.43 5.546001,2.249 8.705002,2.249c0,-3.159 -0.819,-6.124 -2.249001,-8.705c-3.16,0.814 -5.641998,3.296 -6.456001,6.456z" fill="#387A80" id="svg_143"/>
     <path d="m50,-0.001l9,0c0,-0.778 -0.109001,-1.528 -0.294998,-2.249c-2.580002,1.43 -5.546001,2.249 -8.705002,2.249z" fill="#A11477" id="svg_144"/>
     <path d="m58.705002,-2.25c-0.814003,-3.16 -3.296001,-5.642 -6.456001,-6.456c-1.43,2.581 -2.249001,5.546 -2.249001,8.705c3.159,0 6.125,-0.819 8.705002,-2.249z" fill="#387A80" id="svg_145"/>
     <path d="m58.682999,-82.000999c0,-0.838997 0.121002,-1.647003 0.329002,-2.420998c-0.004002,-0.002007 -0.007999,-0.005005 -0.012001,-0.007004c-0.977001,0.565002 -2.009998,1.039001 -3.091999,1.415001c0.056999,0.330002 0.091999,0.667 0.091999,1.013c0,3.312996 -2.687,6 -6,6s-6,-2.687004 -6,-6c0,-0.346001 0.035,-0.682999 0.091999,-1.013c-1.082001,-0.375999 -2.114998,-0.849998 -3.091999,-1.415001c-0.004002,0.001999 -0.007999,0.004997 -0.012001,0.007004c0.208,0.772995 0.329002,1.582001 0.329002,2.420998c0,4.307999 -2.927002,7.920998 -6.896,8.987999c3.112,5.382004 8.916,9.012001 15.578999,9.012001s12.466999,-3.629997 15.579002,-9.012001c-3.970001,-1.067001 -6.896004,-4.68 -6.896004,-8.987999z" fill="#A2120F" id="svg_146"/>
     <path d="m53,-82.000999c0,1.656998 -1.344002,3 -3,3s-3,-1.343002 -3,-3c0,-0.091003 0.02,-0.177002 0.027,-0.265999c-1.010002,-0.168999 -1.990002,-0.417999 -2.936001,-0.747002c-0.056,0.330002 -0.091,0.667 -0.091,1.013c0,3.312996 2.687,6 6,6s6,-2.687004 6,-6c0,-0.346001 -0.035,-0.682999 -0.091999,-1.013c-0.945,0.329002 -1.926003,0.578003 -2.936001,0.747002c0.007999,0.088997 0.028,0.174995 0.028,0.265999z" fill="#7F526A" id="svg_147"/>
     <path d="m50,-79.000999c1.655998,0 3,-1.343002 3,-3c0,-0.091003 -0.02,-0.177002 -0.027,-0.265999c-0.968998,0.160995 -1.957001,0.265999 -2.973,0.265999s-2.004002,-0.104004 -2.973,-0.265999c-0.007,0.088997 -0.027,0.174995 -0.027,0.265999c0,1.656998 1.344002,3 3,3z" fill="#584B41" id="svg_148"/>
     <path d="m52.249001,-91.295998c-0.720001,0.185997 -1.472,0.294998 -2.249001,0.294998s-1.528999,-0.109001 -2.249001,-0.294998c-1.583,2.859001 -3.926998,5.229996 -6.750999,6.866997c0.977001,0.565002 2.009998,1.039001 3.091999,1.415001c0.482002,-2.830002 2.940002,-4.987 5.908001,-4.987s5.425999,2.156998 5.908001,4.987c1.082001,-0.375999 2.114998,-0.849998 3.091999,-1.415001c-2.824001,-1.636002 -5.167999,-4.007996 -6.750999,-6.866997z" fill="#531045" id="svg_149"/>
     <path d="m50,-88.000999c-2.967999,0 -5.425999,2.156998 -5.908001,4.987c0.945,0.329002 1.926003,0.578003 2.936001,0.747002c0.137001,-1.529999 1.407001,-2.734001 2.973,-2.734001s2.836002,1.204002 2.973,2.734001c1.010002,-0.168999 1.990002,-0.417999 2.936001,-0.747002c-0.484001,-2.830002 -2.942001,-4.987 -5.91,-4.987z" fill="#654C76" id="svg_150"/>
     <path d="m52.973,-82.266998c-0.137001,-1.529999 -1.406998,-2.734001 -2.973,-2.734001s-2.835999,1.204002 -2.973,2.734001c0.968998,0.160995 1.957001,0.265999 2.973,0.265999s2.004002,-0.104004 2.973,-0.265999z" fill="#472B45" id="svg_151"/>
     <path d="m23.011999,-84.421997c1.067001,-3.971001 4.681002,-6.896004 8.988001,-6.896004c0.839001,0 1.646999,0.121002 2.421001,0.329002c0.001999,-0.003998 0.004997,-0.008003 0.007,-0.012001c-0.565002,-0.976997 -1.039001,-2.010002 -1.415001,-3.092003c-0.330002,0.056999 -0.667,0.092003 -1.013,0.092003c-3.313,0 -6,-2.687004 -6,-6l-12,0c0,6.663002 3.629999,12.467003 9.011999,15.579002z" fill="#A2120F" id="svg_152"/>
     <path d="m32,-97.000999c-1.657,0 -3,-1.343002 -3,-3l-3,0c0,3.312996 2.687,6 6,6c0.346001,0 0.682999,-0.035004 1.013,-0.092003c-0.329002,-0.945 -0.579002,-1.925995 -0.747002,-2.934998c-0.089001,0.008003 -0.174999,0.027 -0.265999,0.027z" fill="#7F526A" id="svg_153"/>
     <path d="m29,-100.000999c0,1.656998 1.343,3 3,3c0.091,0 0.176998,-0.018997 0.265999,-0.026001c-0.161999,-0.970001 -0.265999,-1.958 -0.265999,-2.973999l-3,0z" fill="#56254B" id="svg_154"/>
     <path d="m40.987999,-84.421997c0.004002,-0.002007 0.007999,-0.005005 0.012001,-0.007004c-0.006001,-0.002998 -0.011002,-0.006996 -0.015999,-0.010002c0.001999,0.006004 0.001999,0.012001 0.003998,0.017006z" fill="#FFFFFF" id="svg_155"/>
     <path d="m34.428001,-91.000999c-0.002003,0.003998 -0.005001,0.008003 -0.007,0.012001c0.004997,0.000999 0.010998,0.002998 0.016998,0.003998c-0.002998,-0.004997 -0.006001,-0.010002 -0.009998,-0.015999z" fill="#FFFFFF" id="svg_156"/>
     <path d="m41.294998,-97.751999c-0.185997,-0.721001 -0.294998,-1.471001 -0.294998,-2.249001l-3,0c0,2.968002 -2.157001,5.426003 -4.987,5.907997c0.375999,1.082001 0.849998,2.115005 1.415001,3.092003c1.635998,-2.824997 4.007999,-5.167999 6.866997,-6.750999z" fill="#531045" id="svg_157"/>
     <path d="m38,-100.000999l-3,0c0,1.565002 -1.203999,2.835999 -2.734001,2.973999c0.167999,1.009003 0.417999,1.988998 0.747002,2.934998c2.829998,-0.482994 4.987,-2.940994 4.987,-5.908997z" fill="#654C76" id="svg_158"/>
     <path d="m32.265999,-97.027c1.530003,-0.138 2.734001,-1.407997 2.734001,-2.973999l-3,0c0,1.015999 0.104,2.003998 0.265999,2.973999z" fill="#472B45" id="svg_159"/>
     <path d="m40.984001,-84.438004c0.004997,0.003006 0.009998,0.007004 0.015999,0.010002c2.824001,-1.637001 5.167999,-4.007996 6.750999,-6.866997c-3.16,-0.814003 -5.641998,-3.296005 -6.456001,-6.456001c-2.858997,1.583 -5.23,3.926003 -6.866997,6.750999c0.003998,0.005997 0.007,0.011002 0.009998,0.015999c3.182999,0.861 5.684002,3.362 6.546001,6.545998z" fill="#787638" id="svg_160"/>
     <path d="m68,-94.000999c-0.346001,0 -0.682999,-0.035004 -1.013,-0.092003c-0.375999,1.082001 -0.849998,2.115005 -1.415001,3.092003c0.001999,0.003998 0.005005,0.008003 0.007004,0.012001c0.772995,-0.208 1.582001,-0.329002 2.420998,-0.329002c4.306999,0 7.921997,2.926003 8.987999,6.896004c5.381004,-3.112 9.012001,-8.916 9.012001,-15.579002l-12,0c0,3.312996 -2.686989,6 -6,6z" fill="#A2120F" id="svg_161"/>
     <path d="m68,-97.000999c-0.091003,0 -0.177002,-0.018997 -0.265999,-0.026001c-0.167999,1.009003 -0.417999,1.988998 -0.747002,2.934998c0.330002,0.056999 0.667,0.092003 1.013,0.092003c3.313004,0 6,-2.686996 6,-6l-3,0c0,1.655998 -1.344002,2.999001 -3,2.999001z" fill="#7F526A" id="svg_162"/>
     <path d="m71,-100.000999l-3,0c0,1.015999 -0.103996,2.003998 -0.265999,2.973999c0.088997,0.008003 0.174995,0.026001 0.265999,0.026001c1.655998,0 3,-1.343002 3,-3z" fill="#56254B" id="svg_163"/>
     <path d="m59,-84.429001c0.004002,0.001999 0.007999,0.004997 0.012001,0.007004c0.001999,-0.005005 0.001999,-0.011002 0.003998,-0.017006c-0.004997,0.003006 -0.009998,0.007004 -0.015999,0.010002z" fill="#FFFFFF" id="svg_164"/>
     <path d="m65.579002,-90.988998c-0.001999,-0.003998 -0.005005,-0.008003 -0.007004,-0.012001c-0.003998,0.005997 -0.006996,0.011002 -0.010002,0.015999c0.006004,-0.000999 0.012001,-0.002998 0.017006,-0.003998z" fill="#FFFFFF" id="svg_165"/>
     <path d="m65.571999,-91.000999c0.565002,-0.976997 1.039001,-2.010002 1.415001,-3.092003c-2.830002,-0.481995 -4.987,-2.939995 -4.987,-5.907997l-3,0c0,0.778 -0.109001,1.528 -0.294998,2.249001c2.858997,1.583 5.230999,3.926003 6.866997,6.750999z" fill="#531045" id="svg_166"/>
     <path d="m66.987,-94.093002c0.329002,-0.945 0.579002,-1.925995 0.747002,-2.934998c-1.529999,-0.137001 -2.734001,-1.407997 -2.734001,-2.973l-3,0c0,2.968002 2.156998,5.426003 4.987,5.907997z" fill="#654C76" id="svg_167"/>
     <path d="m65,-100.000999c0,1.565002 1.204002,2.835999 2.734001,2.973999c0.160995,-0.970001 0.265999,-1.958 0.265999,-2.973999l-3,0z" fill="#472B45" id="svg_168"/>
     <path d="m58.705002,-97.751999c-0.814003,3.159996 -3.296001,5.641998 -6.456001,6.456001c1.583,2.859001 3.926998,5.229996 6.750999,6.866997c0.006001,-0.002998 0.011002,-0.006996 0.015999,-0.010002c0.862,-3.183998 3.363003,-5.684998 6.547005,-6.546997c0.002998,-0.004997 0.005997,-0.010002 0.009995,-0.015999c-1.636997,-2.823997 -4.008999,-5.167 -6.867996,-6.75z" fill="#787638" id="svg_169"/>
     <path d="m32,-77.500999c-2.485001,0 -4.5,-2.014999 -4.5,-4.5c0,-0.196999 0.033001,-0.385002 0.058001,-0.574997c-1.613001,-0.410004 -3.140001,-1.032005 -4.546001,-1.846001c-0.207998,0.772995 -0.328999,1.582001 -0.328999,2.420998c0,5.145996 4.171,9.317001 9.316999,9.317001c0.839001,0 1.646999,-0.121002 2.421001,-0.329002c-0.813,-1.405998 -1.436001,-2.931999 -1.846001,-4.546997c-0.190002,0.026001 -0.378002,0.058998 -0.575001,0.058998z" fill="#EDA362" id="svg_170"/>
     <path d="m41.317001,-82.000999c0,-0.838997 -0.121002,-1.647003 -0.329002,-2.420998c-1.405998,0.812996 -2.931999,1.435997 -4.546997,1.846001c0.024998,0.189995 0.058998,0.377998 0.058998,0.574997c0,2.288002 -1.714001,4.156998 -3.924999,4.441002c0.41,1.614998 1.031998,3.140999 1.846001,4.546997c3.969997,-1.067001 6.896,-4.68 6.896,-8.987999z" fill="#B47B79" id="svg_171"/>
     <path d="m32,-86.500999c0.196999,0 0.384998,0.032997 0.575001,0.057999c0.41,-1.612999 1.031998,-3.139999 1.846001,-4.545998c-0.773003,-0.208 -1.582001,-0.329002 -2.421001,-0.329002c-4.308001,0 -7.921,2.926003 -8.988001,6.896004c1.406,0.812996 2.933001,1.435997 4.546001,1.846001c0.285,-2.211006 2.153999,-3.925003 4.441999,-3.925003z" fill="#B47B79" id="svg_172"/>
     <path d="m36.441002,-82.575996c1.614998,-0.410004 3.140999,-1.032005 4.546997,-1.846001c-0.001999,-0.005005 -0.001999,-0.011002 -0.003998,-0.017006c-2.713001,-1.574997 -4.972,-3.834 -6.547001,-6.546997c-0.006001,-0.000999 -0.012001,-0.002998 -0.017002,-0.003998c-0.813,1.405998 -1.435997,2.932999 -1.845997,4.545998c2.021999,0.262001 3.607998,1.847 3.867001,3.868004z" fill="#10927B" id="svg_173"/>
     <path d="m34.438,-90.985001c1.575001,2.712997 3.834,4.972 6.547001,6.546997c-0.862999,-3.183998 -3.364002,-5.684998 -6.547001,-6.546997z" fill="#3A4768" id="svg_174"/>
     <path d="m27.558001,-82.575996c-0.024,0.189995 -0.058001,0.377998 -0.058001,0.574997c0,2.485001 2.014999,4.5 4.5,4.5c0.196999,0 0.384998,-0.032997 0.575001,-0.058998c-0.362,-1.422005 -0.575001,-2.904999 -0.575001,-4.441002c-1.535999,0 -3.018999,-0.212997 -4.441999,-0.574997z" fill="#B25B2D" id="svg_175"/>
     <path d="m32.575001,-77.559998c2.210999,-0.284004 3.924999,-2.153 3.924999,-4.441002c0,-0.196999 -0.033001,-0.385002 -0.058998,-0.574997c-1.423,0.362 -2.905003,0.574997 -4.441002,0.574997c0,1.536003 0.213001,3.018997 0.575001,4.441002z" fill="#6C3147" id="svg_176"/>
     <path d="m32.575001,-86.443001c-0.190002,-0.024002 -0.378002,-0.057999 -0.575001,-0.057999c-2.288,0 -4.157,1.713997 -4.441999,3.925003c1.424,0.362 2.906,0.574997 4.441999,0.574997c0,-1.536003 0.213001,-3.018997 0.575001,-4.442001z" fill="#6C3147" id="svg_177"/>
     <path d="m32.575001,-86.443001c-0.362,1.423004 -0.575001,2.905998 -0.575001,4.442001c1.535999,0 3.019001,-0.212997 4.441002,-0.574997c-0.259003,-2.021004 -1.845001,-3.606003 -3.866001,-3.867004z" fill="#606E66" id="svg_178"/>
     <path d="m72.5,-82.000999c0,2.485001 -2.014999,4.5 -4.5,4.5c-0.196999,0 -0.385002,-0.032997 -0.574997,-0.058998c-0.410004,1.614998 -1.032005,3.140999 -1.846001,4.546997c0.772995,0.208 1.582001,0.329002 2.420998,0.329002c5.146004,0 9.317001,-4.172005 9.317001,-9.317001c0,-0.838997 -0.121002,-1.647003 -0.329002,-2.420998c-1.405998,0.812996 -2.931999,1.435997 -4.546997,1.846001c0.026001,0.189995 0.058998,0.377998 0.058998,0.574997z" fill="#EDA362" id="svg_179"/>
     <path d="m63.5,-82.000999c0,-0.196999 0.033001,-0.385002 0.058998,-0.574997c-1.614998,-0.410004 -3.140999,-1.032005 -4.546997,-1.846001c-0.208,0.772995 -0.329002,1.582001 -0.329002,2.420998c0,4.307999 2.927002,7.920998 6.896004,8.987999c0.812996,-1.405998 1.435997,-2.931999 1.846001,-4.546997c-2.211006,-0.284004 -3.925003,-2.153 -3.925003,-4.441002z" fill="#B47B79" id="svg_180"/>
     <path d="m68,-91.318001c-0.838997,0 -1.647003,0.121002 -2.420998,0.329002c0.812996,1.405998 1.435997,2.932999 1.846001,4.545998c0.189995,-0.024002 0.377998,-0.057999 0.574997,-0.057999c2.288002,0 4.155998,1.713997 4.441002,3.925003c1.614998,-0.410004 3.140999,-1.032005 4.546997,-1.846001c-1.066002,-3.971001 -4.681,-6.896004 -8.987999,-6.896004z" fill="#B47B79" id="svg_181"/>
     <path d="m59.015999,-84.438004c-0.001999,0.006004 -0.001999,0.012001 -0.003998,0.017006c1.405998,0.812996 2.931999,1.435997 4.546997,1.846001c0.260002,-2.021004 1.846001,-3.605003 3.866005,-3.867004c-0.410004,-1.612999 -1.032005,-3.139999 -1.846001,-4.545998c-0.005005,0.000999 -0.011002,0.002998 -0.017006,0.003998c-1.574997,2.711998 -3.832996,4.970001 -6.545998,6.545998z" fill="#10927B" id="svg_182"/>
     <path d="m65.561996,-90.985001c-3.183998,0.862 -5.684998,3.362999 -6.546997,6.546997c2.714001,-1.575996 4.972,-3.834 6.546997,-6.546997z" fill="#3A4768" id="svg_183"/>
     <path d="m67.425003,-77.559998c0.189995,0.024994 0.377998,0.058998 0.574997,0.058998c2.485001,0 4.5,-2.014999 4.5,-4.5c0,-0.196999 -0.032997,-0.385002 -0.058998,-0.574997c-1.423004,0.362 -2.904999,0.574997 -4.441002,0.574997c0,1.536003 -0.212997,3.018997 -0.574997,4.441002z" fill="#B25B2D" id="svg_184"/>
     <path d="m63.558998,-82.575996c-0.024998,0.189995 -0.058998,0.377998 -0.058998,0.574997c0,2.288002 1.713997,4.156998 3.925003,4.441002c0.362,-1.422005 0.574997,-2.904999 0.574997,-4.441002c-1.536003,0 -3.018997,-0.212997 -4.441002,-0.574997z" fill="#6C3147" id="svg_185"/>
     <path d="m72.441002,-82.575996c-0.285004,-2.211006 -2.153,-3.925003 -4.441002,-3.925003c-0.196999,0 -0.385002,0.032997 -0.574997,0.057999c0.362,1.423004 0.574997,2.905998 0.574997,4.442001c1.536003,0 3.018997,-0.212997 4.441002,-0.574997z" fill="#6C3147" id="svg_186"/>
     <path d="m63.558998,-82.575996c1.423004,0.362 2.904999,0.574997 4.441002,0.574997c0,-1.536003 -0.212997,-3.018997 -0.574997,-4.442001c-2.021004,0.261002 -3.607002,1.846001 -3.866005,3.867004z" fill="#606E66" id="svg_187"/>
     <path d="m52.249001,-91.295998c-1.43,-2.581001 -2.249001,-5.546005 -2.249001,-8.705002c0,3.158997 -0.819,6.124001 -2.249001,8.705002c0.720001,0.185997 1.472,0.294998 2.249001,0.294998s1.528999,-0.109001 2.249001,-0.294998z" fill="#A11477" id="svg_188"/>
     <path d="m50,-100.000999l-9,0c0,0.778 0.109001,1.528 0.294998,2.249001c2.580002,-1.43 5.546001,-2.249001 8.705002,-2.249001z" fill="#A11477" id="svg_189"/>
     <path d="m41.294998,-97.751999c0.814003,3.159996 3.296001,5.641998 6.456001,6.456001c1.43,-2.581001 2.249001,-5.546005 2.249001,-8.705002c-3.159,0 -6.125,0.819 -8.705002,2.249001z" fill="#387A80" id="svg_190"/>
     <path d="m58.705002,-97.751999c0.185997,-0.721001 0.294998,-1.471001 0.294998,-2.249001l-9,0c3.159,0 6.125,0.819 8.705002,2.249001z" fill="#A11477" id="svg_191"/>
     <path d="m58.705002,-97.751999c-2.580002,-1.43 -5.546001,-2.249001 -8.705002,-2.249001c0,3.158997 0.819,6.124001 2.249001,8.705002c3.16,-0.814003 5.641998,-3.296005 6.456001,-6.456001z" fill="#387A80" id="svg_192"/>
    </g>
    <g id="svg_193">
     <path d="m97.265999,-0.002c-17.319,-11.073 -8.339996,-20.050999 2.734001,-2.734" fill="#961A69" id="svg_194"/>
     <path d="m100,-0.001l-9,-0.001c0,-4.969 4.028,-8.999 9,-8.999l0,9z" fill="#F3C481" opacity="0.81" id="svg_195"/>
     <path d="m100,-0.001l-6,0c0,-3.312 2.685997,-6 6,-6l0,6z" fill="#C1157C" id="svg_196"/>
     <path d="m100,-0.001l-7.335999,0.001c-0.000999,-0.895 2.167,-1.789 6.501999,-0.836c-0.953003,-4.333 -0.059998,-6.5 0.834,-6.502l0,7.337z" fill="#F7DB15" opacity="0.76" id="svg_197"/>
     <path d="m100,-0.001l-1.181,-0.001c-7.477997,-4.782 -3.601997,-8.658 1.181,-1.181l0,1.182z" fill="#F7DB15" opacity="0.76" id="svg_198"/>
    </g>
    <g id="svg_199">
     <path d="m2.734,-0.002c17.319,-11.073 8.34,-20.050999 -2.734,-2.734" fill="#961A69" id="svg_200"/>
     <path d="m0,-0.001l9,-0.001c0,-4.969 -4.028,-8.999 -9,-8.999l0,9z" fill="#F3C481" opacity="0.81" id="svg_201"/>
     <path d="m0,-0.001l6,0c0,-3.312 -2.686,-6 -6,-6l0,6z" fill="#C1157C" id="svg_202"/>
     <path d="m0,-0.001l7.336,0.001c0.001,-0.895 -2.167,-1.789 -6.502,-0.836c0.953,-4.333 0.06,-6.5 -0.834,-6.502l0,7.337z" fill="#F7DB15" opacity="0.76" id="svg_203"/>
     <path d="m0,-0.001l1.181,-0.001c7.478,-4.782 3.602,-8.658 -1.181,-1.181l0,1.182z" fill="#F7DB15" opacity="0.76" id="svg_204"/>
    </g>
    <g id="svg_205">
     <path d="m97.265999,-100c-17.318001,11.072998 -8.339996,20.051003 2.734001,2.734001" fill="#961A69" id="svg_206"/>
     <path d="m100,-100.000999l-9,0.000999c0,4.969002 4.028,8.999001 9,8.999001l0,-9z" fill="#F3C481" opacity="0.81" id="svg_207"/>
     <path d="m100,-100.000999l-6,0c0,3.311996 2.685997,6 6,6l0,-6z" fill="#C1157C" id="svg_208"/>
     <path d="m100,-100.000999l-7.335999,-0.000999c-0.000999,0.894997 2.167,1.789001 6.501999,0.835999c-0.953003,4.333 -0.059998,6.5 0.834,6.501999l0,-7.336998z" fill="#F7DB15" opacity="0.76" id="svg_209"/>
     <path d="m100,-100.000999l-1.181,0.000999c-7.479004,4.781998 -3.602997,8.657997 1.181,1.181l0,-1.181999z" fill="#F7DB15" opacity="0.76" id="svg_210"/>
    </g>
    <g id="svg_211">
     <path d="m2.734,-100c17.319,11.072998 8.34,20.051003 -2.734,2.734001" fill="#961A69" id="svg_212"/>
     <path d="m0,-100.000999l9,0.000999c0,4.969002 -4.028,8.999001 -9,8.999001l0,-9z" fill="#F3C481" opacity="0.81" id="svg_213"/>
     <path d="m0,-100.000999l6,0c0,3.311996 -2.686,6 -6,6l0,-6z" fill="#C1157C" id="svg_214"/>
     <path d="m0,-100.000999l7.336,-0.000999c0.001,0.894997 -2.167,1.789001 -6.502,0.835999c0.953,4.333 0.06,6.5 -0.834,6.501999l0,-7.336998z" fill="#F7DB15" opacity="0.76" id="svg_215"/>
     <path d="m0,-100.000999l1.181,0.000999c7.478,4.781998 3.602,8.657997 -1.181,1.181l0,-1.181999z" fill="#F7DB15" opacity="0.76" id="svg_216"/>
    </g>
    <g id="svg_217">
     <path d="m53.905998,-50.000999c24.740005,15.819 11.914001,28.644999 -3.905998,3.905998c-15.82,24.738001 -28.646,11.913002 -3.905998,-3.905998c-24.740002,-15.819 -11.914001,-28.645004 3.905998,-3.906002c15.82,-24.739002 28.646004,-11.912998 3.905998,3.906002z" fill="#961A69" id="svg_218"/>
     <path d="m63.5,-50.001999c0,7.454998 -6.043999,13.500999 -13.5,13.500999c-7.455002,0 -13.5,-6.046001 -13.5,-13.500999c0,-7.454002 6.044998,-13.499001 13.5,-13.499001c7.456001,0 13.5,6.044998 13.5,13.499001z" fill="#F3C481" opacity="0.81" id="svg_219"/>
     <path d="m59,-50.001999c0,4.972 -4.028,9.000999 -9,9.000999c-4.970001,0 -9,-4.028999 -9,-9.000999c0,-4.970001 4.029999,-8.999001 9,-8.999001c4.972,0 9,4.028999 9,8.999001z" fill="#C1157C" id="svg_220"/>
     <path d="m51.193001,-48.807999c2.723,12.384998 -5.110001,12.384998 -2.387001,0c-12.386002,2.723 -12.386002,-5.109001 0,-2.386002c-2.723999,-12.386002 5.109001,-12.386002 2.387001,0c12.384998,-2.723 12.384998,5.109001 0,2.386002z" fill="#F7DB15" opacity="0.76" id="svg_221"/>
     <path d="m50,-48.313c-6.832001,10.682999 -12.369999,5.145 -1.687,-1.688c-10.682999,-6.832001 -5.145,-12.369999 1.687,-1.687c6.832001,-10.682999 12.370998,-5.145 1.687,1.687c10.683998,6.832001 5.145,12.369999 -1.687,1.688z" fill="#F7DB15" opacity="0.76" id="svg_222"/>
    </g>
   </g>
  </pattern>
  <pattern height="31.763" id="Chinese_Tiles" patternUnits="userSpaceOnUse" viewBox="13.333 -45.096 31.763 31.763" width="31.763" x="-27.81" y="400.192">
   <g id="svg_223">
    <g id="svg_224">
     <polygon fill="none" points="13.333-13.333 13.333-45.096 45.096-45.096 45.096-13.333 " id="svg_225"/>
     <polygon fill="#659A4A" points="45.096-13.333 45.096-45.096 13.333-45.096 13.333-13.333 " id="svg_226"/>
     <polygon fill="none" points="42.384-13.353 29.207-26.529        16.031-13.353 29.207-0.177 " stroke="#F2F2DC" stroke-linejoin="bevel" stroke-width="0.5" id="svg_227"/>
     <polygon fill="none" points="45.075-42.384 31.897-29.207        45.075-16.03 58.251-29.207 " stroke="#F2F2DC" stroke-linejoin="bevel" stroke-width="0.5" id="svg_228"/>
     <polygon fill="none" points="16.043-45.075 29.22-31.897        42.396-45.075 29.22-58.251 " stroke="#F2F2DC" stroke-linejoin="bevel" stroke-width="0.5" id="svg_229"/>
     <polygon fill="none" points="13.353-16.044 26.529-29.221        13.353-42.396 0.177-29.221 " stroke="#F2F2DC" stroke-linejoin="bevel" stroke-width="0.5" id="svg_230"/>
     <path d="m24.576,-16.197001c-0.284,-0.630999 -0.380001,-1.33 -0.306,-2.022999c0.682999,-0.074001 1.369999,0.018 1.990999,0.289" fill="none" stroke="#F2F2DC" stroke-width="0.5" id="svg_231"/>
     <path d="m32.117001,-17.919001c0.630001,-0.283998 1.331001,-0.379 2.022999,-0.305c0.073002,0.681002 -0.019001,1.369001 -0.291,1.991001" fill="none" stroke="#F2F2DC" stroke-width="0.5" id="svg_232"/>
     <path d="m42.167,-24.576c-0.630001,0.283001 -1.329998,0.380001 -2.022999,0.305c-0.074001,-0.683001 0.018997,-1.368999 0.291,-1.990999" fill="none" stroke="#F2F2DC" stroke-width="0.5" id="svg_233"/>
     <path d="m40.445,-32.117001c-0.283001,-0.630001 -0.380001,-1.331001 -0.305,-2.022999c0.683002,-0.074001 1.369999,0.019001 1.991001,0.291" fill="none" stroke="#F2F2DC" stroke-width="0.5" id="svg_234"/>
     <path d="m33.851002,-42.23c0.283997,0.631001 0.379997,1.329998 0.306,2.022999c-0.682003,0.075001 -1.370003,-0.017998 -1.991001,-0.290001" fill="none" stroke="#F2F2DC" stroke-width="0.5" id="svg_235"/>
     <path d="m26.311001,-40.507999c-0.631001,0.283001 -1.331001,0.378998 -2.022001,0.305c-0.074999,-0.683002 0.017,-1.370003 0.289,-1.991001" fill="none" stroke="#F2F2DC" stroke-width="0.5" id="svg_236"/>
     <path d="m16.26,-33.852001c0.629999,-0.282997 1.33,-0.378998 2.023001,-0.303997c0.073999,0.681 -0.019001,1.368 -0.289001,1.989998" fill="none" stroke="#F2F2DC" stroke-width="0.5" id="svg_237"/>
     <path d="m17.98,-26.311001c0.284,0.630001 0.380001,1.331001 0.306,2.022001c-0.681999,0.074999 -1.368999,-0.018 -1.990999,-0.289" fill="none" stroke="#F2F2DC" stroke-width="0.5" id="svg_238"/>
     <line fill="none" stroke="#F2F2DC" stroke-width="0.5" x1="23.883" x2="34.531" y1="-13.29" y2="-13.29" id="svg_239"/>
     <line fill="none" stroke="#F2F2DC" stroke-width="0.5" x1="29.207" x2="29.207" y1="-18.614" y2="-7.966" id="svg_240"/>
     <line fill="none" stroke="#62573A" stroke-width="0.5" x1="27.325" x2="31.089" y1="-15.173" y2="-11.408" id="svg_241"/>
     <line fill="none" stroke="#62573A" stroke-width="0.5" x1="31.089" x2="27.325" y1="-15.173" y2="-11.408" id="svg_242"/>
     <line fill="none" stroke="#F2F2DC" stroke-width="0.5" x1="45.075" x2="45.075" y1="-23.883" y2="-34.53" id="svg_243"/>
     <line fill="none" stroke="#F2F2DC" stroke-width="0.5" x1="39.751" x2="50.398" y1="-29.207" y2="-29.207" id="svg_244"/>
     <line fill="none" stroke="#62573A" stroke-width="0.5" x1="43.192" x2="46.957" y1="-27.325" y2="-31.089" id="svg_245"/>
     <line fill="none" stroke="#62573A" stroke-width="0.5" x1="43.192" x2="46.957" y1="-31.089" y2="-27.325" id="svg_246"/>
     <line fill="none" stroke="#F2F2DC" stroke-width="0.5" x1="34.544" x2="23.896" y1="-45.138" y2="-45.138" id="svg_247"/>
     <line fill="none" stroke="#F2F2DC" stroke-width="0.5" x1="29.22" x2="29.22" y1="-39.813" y2="-50.461" id="svg_248"/>
     <line fill="none" stroke="#62573A" stroke-width="0.5" x1="31.102" x2="27.338" y1="-43.255" y2="-47.02" id="svg_249"/>
     <line fill="none" stroke="#62573A" stroke-width="0.5" x1="27.338" x2="31.102" y1="-43.255" y2="-47.02" id="svg_250"/>
     <line fill="none" stroke="#F2F2DC" stroke-width="0.5" x1="13.353" x2="13.353" y1="-34.545" y2="-23.896" id="svg_251"/>
     <line fill="none" stroke="#F2F2DC" stroke-width="0.5" x1="18.677" x2="8.028" y1="-29.221" y2="-29.221" id="svg_252"/>
     <line fill="none" stroke="#62573A" stroke-width="0.5" x1="15.235" x2="11.471" y1="-31.103" y2="-27.338" id="svg_253"/>
     <line fill="none" stroke="#62573A" stroke-width="0.5" x1="15.235" x2="11.471" y1="-27.338" y2="-31.103" id="svg_254"/>
     <line fill="none" stroke="#62573A" stroke-width="0.5" x1="31.93" x2="42.449" y1="-26.499" y2="-15.979" id="svg_255"/>
     <line fill="none" stroke="#62573A" stroke-width="0.5" x1="16.014" x2="26.43" y1="-16.083" y2="-26.566" id="svg_256"/>
     <line fill="none" stroke="#62573A" stroke-width="0.5" x1="31.93" x2="42.449" y1="-31.929" y2="-42.448" id="svg_257"/>
     <line fill="none" stroke="#62573A" stroke-width="0.5" x1="16.014" x2="26.43" y1="-42.346" y2="-31.86" id="svg_258"/>
     <polygon fill="none" points="31.964-26.464 31.964-31.964 26.464-31.964 26.464-26.464        " stroke="#F2F2DC" stroke-width="0.5" id="svg_259"/>
     <polygon fill="none" points="16.083-42.346 16.083-47.846 10.583-47.846 10.583-42.346        " stroke="#F2F2DC" stroke-width="0.5" id="svg_260"/>
     <polygon fill="none" points="16.083-16.083 10.583-16.083 10.583-10.583 16.083-10.583        " stroke="#F2F2DC" stroke-width="0.5" id="svg_261"/>
     <polygon fill="none" points="42.346-16.083 42.346-10.583 47.846-10.583 47.846-16.083        " stroke="#F2F2DC" stroke-width="0.5" id="svg_262"/>
     <polygon fill="none" points="42.346-42.346 47.846-42.346 47.846-47.846 42.346-47.846        " stroke="#F2F2DC" stroke-width="0.5" id="svg_263"/>
    </g>
    <path d="m47.952999,-26.329c0.535999,2.559 -0.648998,5.153 -2.877998,6.327c-2.23,-1.174 -3.416,-3.768999 -2.880001,-6.327c-2.558998,0.536001 -5.153,-0.647999 -6.325001,-2.878c1.172001,-2.229 3.767002,-3.416 6.325001,-2.878998c-0.535999,-2.559002 0.649002,-5.151001 2.880001,-6.326c2.229,1.174999 3.413998,3.767998 2.877998,6.326" fill="none" stroke="#62573A" stroke-width="0.5" id="svg_264"/>
    <path d="m26.327999,-10.411c-2.557999,0.535 -5.151999,-0.649 -6.325998,-2.879c1.174,-2.23 3.768999,-3.415 6.325998,-2.879001c-0.535,-2.559 0.648001,-5.153 2.879002,-6.326c2.229,1.173 3.416,3.768002 2.878998,6.326c2.558002,-0.535999 5.151001,0.648001 6.326,2.879001c-1.174999,2.229 -3.768997,3.414 -6.326,2.879" fill="none" stroke="#62573A" stroke-width="0.5" id="svg_265"/>
    <path d="m32.098999,-48.016998c2.560001,-0.534 5.152,0.648998 6.326,2.878998c-1.174,2.23 -3.766998,3.416 -6.326,2.880001c0.535999,2.557999 -0.647999,5.152 -2.879,6.325001c-2.229,-1.173 -3.414999,-3.768002 -2.878,-6.325001c-2.558998,0.535999 -5.153,-0.649002 -6.327,-2.880001c1.174,-2.229 3.769001,-3.412998 6.327,-2.878998" fill="none" stroke="#62573A" stroke-width="0.5" id="svg_266"/>
    <path d="m10.474,-32.098999c-0.536,-2.560001 0.649,-5.153 2.879,-6.326c2.229,1.173 3.415,3.766998 2.878001,6.326c2.559999,-0.535999 5.153999,0.647999 6.327,2.877998c-1.173,2.229 -3.768,3.416 -6.327,2.879002c0.536999,2.558998 -0.648001,5.153 -2.878001,6.325998c-2.229,-1.172998 -3.415,-3.768 -2.879,-6.325998" fill="none" stroke="#62573A" stroke-width="0.5" id="svg_267"/>
   </g>
  </pattern>
  <pattern height="97.199" id="Spiral" patternUnits="userSpaceOnUse" viewBox="28.668 -123.651 97.2 97.199" width="97.2" x="-27.81" y="400.192">
   <g id="svg_268">
    <polygon fill="none" points="28.668-26.452 28.668-123.651 125.869-123.651 125.869-26.452 " id="svg_269"/>
    <path d="m74.087997,-107.703003c-8.851997,15.101006 10.290001,34.900002 28.869003,23.104004" fill="none" stroke="#FB805F" stroke-linecap="round" id="svg_270"/>
    <path d="m58.705002,-42.769001c-2.587002,0.868 0.445,2.792 1.389,2.396c3.306,-1.389 2.091,-6.222 -1.561001,-5.528c-7.521,1.429001 -7.299999,10.060001 -0.009003,9.695c10.978001,0 10.702,-14.212997 0.190002,-13.73" fill="none" stroke="#FB805F" stroke-linecap="round" id="svg_271"/>
    <path d="m48.610001,-39.813999c0.758999,4.398998 4.591999,7.134998 10.642998,7.07c16.783005,-0.174999 14.733002,-21.471001 0.136002,-21.056999" fill="none" stroke="#FB805F" stroke-linecap="round" id="svg_272"/>
    <path d="m34.622002,-32.918999c-1.234001,0.870998 0.618999,2.955999 2.278,1.634998c3.071999,-2.446999 -0.426003,-6.34 -3.483002,-4.716c-6.115999,3.251999 -0.784,11.093 4.884998,7.705c7.719002,-4.1 1.285004,-14.607 -6.149998,-11.446001c-11.252001,4.785999 -1.131001,23.433001 10.382999,12.847002c2.861,-2.632 3.702,-5.425001 3.014999,-8.767" fill="none" stroke="#FB805F" stroke-linecap="round" id="svg_273"/>
    <path d="m32.321999,-43.949001c-1.399998,0.385002 -2.847998,1.063 -4.311998,2.086002c-13.117001,9.164997 -0.013,30.189999 16.197001,18.424999c2.683998,-1.947001 4.203999,-4.91 4.897999,-7.844" fill="none" stroke="#FB805F" stroke-linecap="round" id="svg_274"/>
    <path d="m49.271999,-118.790001c-1.359001,0.962997 0.684002,3.263 2.514,1.804001c3.385002,-2.695999 0.570999,-7.858002 -3.841999,-5.198997c-6.539001,3.940994 -0.862999,12.228996 5.386002,8.495995c7.707996,-4.094994 3.151997,-14.773994 -4.356003,-13.445999" fill="none" stroke="#FB805F" stroke-linecap="round" id="svg_275"/>
    <path d="m40.625,-118.619003c-0.412998,7.217003 8.492001,14.823006 17.369999,6.473c4.542,-4.270996 4.526001,-9.871994 1.907001,-13.929993" fill="none" stroke="#FB805F" stroke-linecap="round" id="svg_276"/>
    <path d="m132.240997,-62.691002c-13.518997,9.197002 -0.147003,33.734001 17.858002,20.313004" fill="none" stroke="#FB805F" stroke-linecap="round" id="svg_277"/>
    <path d="m129.339996,-65.852997c-8.330994,5.553997 -7.983994,18.917995 -3.472,23.430996" fill="none" stroke="#FB805F" stroke-linecap="round" id="svg_278"/>
    <path d="m44.780998,-38.650002c0.964001,5.715 5.962002,10.833002 14.439003,9.980001c1.920998,-0.193001 3.656998,-0.552 5.215996,-1.044001" fill="none" stroke="#FB805F" stroke-linecap="round" id="svg_279"/>
    <path d="m74.986,-39.995998c2.171997,-8.543003 -4.019997,-18.485001 -15.653,-17.006001" fill="none" stroke="#FB805F" stroke-linecap="round" id="svg_280"/>
    <path d="m86.196999,-46.196999c-2.357002,-0.32 -2.292999,4.261997 1.102005,3.02c4.529999,-1.657001 1.143997,-7.990002 -3.428001,-6.447002c-6.537003,2.204002 -3.167999,12.518002 4.417999,9.723999c10.497002,-4.066998 4.732002,-16.348 -5.729004,-13.309998c-6.903,2.003998 -8.560997,8.356998 -6.147995,12.882" fill="none" stroke="#FB805F" stroke-linecap="round" id="svg_281"/>
    <path d="m90.107002,-36.368999c13.891998,-4.749001 8.953995,-25.670002 -8.338005,-20.254002c-4.070999,1.275002 -6.797997,2.880001 -8.552994,5.271999" fill="none" stroke="#FB805F" stroke-linecap="round" id="svg_282"/>
    <path d="m93.032997,-33.169998c13.356003,-4.804001 14.368004,-30.411003 -7.778999,-27.823002" fill="none" stroke="#FB805F" stroke-linecap="round" id="svg_283"/>
    <path d="m129.352005,-39.741001c-11.255005,4.785999 -1.12999,23.433001 10.380005,12.847002" fill="none" stroke="#FB805F" stroke-linecap="round" id="svg_284"/>
    <path d="m129.522995,-43.949001c-1.401993,0.385002 -2.848991,1.063 -4.315994,2.086002c-13.112999,9.164997 -0.012001,30.189999 16.199997,18.424999" fill="none" stroke="#FB805F" stroke-linecap="round" id="svg_285"/>
    <path d="m100.297997,-37.374001c-2.155998,1.007999 -5.162994,3.045002 -6.75,5.344002" fill="none" stroke="#FB805F" stroke-linecap="round" id="svg_286"/>
    <path d="m129.352005,-136.940994c-11.255005,4.786011 -1.12999,23.431992 10.380005,12.847008" fill="none" stroke="#FB805F" stroke-linecap="round" id="svg_287"/>
    <path d="m125.207001,-139.061996c-13.112999,9.164001 -0.012001,30.187996 16.199997,18.423996" fill="none" stroke="#FB805F" stroke-linecap="round" id="svg_288"/>
    <path d="m71.375999,-67.776001c0.421997,2.229004 3.849998,1.988998 3.254997,-0.935997c-0.763,-3.741005 -6.603996,-2.806 -6.527,1.009995c0.175003,8.675003 10.695007,6.350002 10.167007,-0.910995c-0.231003,-10.027 -13.734001,-7.813004 -14.234001,1.210999c-0.792004,14.309002 22.501999,11.499001 18.226997,-5.033997c-3.056999,-11.808006 -23.953999,-8.131004 -22.330002,7.576996c1.570004,15.221001 31.316002,14.604 26.734001,-8.038002c-3.357002,-16.617996 -35.086998,-12.395996 -31.094997,9.127003" fill="none" stroke="#FB805F" stroke-linecap="round" id="svg_289"/>
    <path d="m63.505001,-88.066002c-1.706001,1.137001 -0.095001,3.275002 1.471996,2.672005c4.972,-1.917 1.092003,-8.729004 -3.321999,-6.241005c-6.648998,3.747002 -1.036999,12.056 4.867004,9.536003c9.550995,-5.040001 2.446999,-16.219002 -5.912003,-13.139999c-8.823002,3.25 -7.677002,13.335999 -0.695999,16.657997" fill="none" stroke="#FB805F" stroke-linecap="round" id="svg_290"/>
    <path d="m62.862999,-111.330002c1.736,-0.347 5.726997,0.175003 7.638,1.041" fill="none" stroke="#FB805F" stroke-linecap="round" id="svg_291"/>
    <path d="m77.912003,-82.196999c0.57,-1.250999 0.689995,-2.259003 0.897995,-3.519005" fill="none" stroke="#FB805F" stroke-linecap="round" id="svg_292"/>
    <path d="m110.345001,-44.747002c-1.318001,1.851002 2.444,4.504002 4.144997,2.050003c2.526001,-3.652 -3.555,-7.701 -6.460999,-4.359001c-5.792,6.650002 4.900002,12.464001 9.774002,7.055c5.687996,-7.799999 -5.497002,-17.277 -12.807999,-9.781002c-10.512001,10.778 10.420998,24.069002 17.520996,10.34c6.310997,-12.201 -10.654999,-23.764999 -20.549995,-13.245998" fill="none" stroke="#FB805F" stroke-linecap="round" id="svg_293"/>
    <path d="m99.755997,-38.400002c3.401001,7.066002 12.254005,11.774002 20.051003,7.143002" fill="none" stroke="#FB805F" stroke-linecap="round" id="svg_294"/>
    <path d="m123.130997,-55.589001c-6.017998,-5.341999 -16.381996,-6.475998 -23.18,-0.729" fill="none" stroke="#FB805F" stroke-linecap="round" id="svg_295"/>
    <path d="m99.261002,-63.245998c-1.357002,0.962997 0.487999,2.976997 2.514,1.803997c3.297997,-1.906998 0.141998,-8.056999 -4.892998,-4.758995c-5.034004,3.298996 0.186996,11.352997 6.435997,7.880997c8.684998,-5.214001 1.380997,-16.022003 -6.779999,-12.445c-4.927002,2.159996 -6.450005,5.945 -5.792,9.59" fill="none" stroke="#FB805F" stroke-linecap="round" id="svg_296"/>
    <path d="m110.655998,-60.201c4.119003,-8.904003 -5.974998,-20.348003 -18.336998,-13.077999c-5.118004,3.012001 -5.968002,7.468002 -5.516998,11.992001" fill="none" stroke="#FB805F" stroke-linecap="round" id="svg_297"/>
    <path d="m36.508999,-117.158997c0.764,9.334999 10.877003,17.947998 23.333,8.823997c6.964001,-5.103004 7.407001,-12.512001 4.571003,-18.609001c1.041,-2.604004 1.574997,-4.692993 4.351997,-6.602005c16.314003,-14.059998 37.460999,9.990005 20.584,22.781006c-17.896996,13.565002 -31.375,-11.118004 -17.858002,-20.313004c13.551003,-9.220001 25.642006,7.650002 16.013,16.500999c-12.695,11.671005 -25.067997,-8.190994 -11.446999,-14.163002c8.155998,-3.574997 15.291,8.101006 6.778999,12.620003c-6.249001,3.734001 -12.126999,-4.912994 -5.383995,-8.493996c3.371994,-1.792999 7.228996,2.500999 3.840996,5.197998c-1.828003,1.458 -3.871002,-0.841003 -2.512001,-1.804001" fill="none" stroke="#FB805F" stroke-linecap="round" id="svg_298"/>
    <path d="m59.841999,-11.135c6.964001,-5.104 7.407001,-12.511999 4.571003,-18.608999c1.041,-2.604 1.574997,-4.693001 4.351997,-6.603001c16.314003,-14.060001 37.460999,9.990999 20.584,22.782001c-17.896996,13.565 -31.375,-11.118001 -17.858002,-20.312999c13.551003,-9.220001 25.642006,7.649998 16.013,16.500998c-12.695,11.671001 -25.067997,-8.191999 -11.447998,-14.163c8.155998,-3.575001 15.291,8.101002 6.778999,12.620001c-6.249001,3.733 -12.126999,-4.914 -5.38401,-8.495001c3.372009,-1.792999 7.229012,2.501001 3.841011,5.198002" fill="none" stroke="#FB805F" stroke-linecap="round" id="svg_299"/>
    <path d="m102.945,-131.056c-5.645996,2.404007 -8.098,6.487999 -7.154999,14.266998" fill="none" stroke="#FB805F" stroke-linecap="round" id="svg_300"/>
    <path d="m106.945999,-107.231003c7.595001,0.081001 18.429001,-7.010994 13.639,-18.179001" fill="none" stroke="#FB805F" stroke-linecap="round" id="svg_301"/>
    <path d="m84.905998,-77.137001c1.542,-1.756996 2.766998,-2.878998 4.707001,-3.951996" fill="none" stroke="#FB805F" stroke-linecap="round" id="svg_302"/>
    <path d="m84.558998,-82.342003c-1.041,0.520004 -1.305,1.128006 -2.519997,1.994003" fill="none" stroke="#FB805F" stroke-linecap="round" id="svg_303"/>
    <path d="m118.005997,-93.100998c-1.354996,0.962997 0.688004,3.261002 2.516006,1.804001c3.385994,-2.695999 -0.471001,-6.992004 -3.846001,-5.199005c-6.741005,3.583 -0.861,12.229004 5.389,8.495003c8.511002,-4.520004 1.375999,-16.195999 -6.779999,-12.619003c-13.620003,5.971001 -1.249001,25.833 11.445999,14.161003c9.623001,-8.851997 -2.462006,-25.721001 -16.012001,-16.502998c-13.518005,9.196999 -0.150002,33.734001 17.857002,20.312996c17.395996,-12.961998 -2.899002,-35.381996 -20.758003,-23.474998c-8.333,5.556 -8.159004,17.011002 -4.340004,22.393997" fill="none" stroke="#FB805F" stroke-linecap="round" id="svg_304"/>
    <path d="m24.864,-88.000999c8.509001,-4.520004 1.376999,-16.195999 -6.778,-12.619003c-13.622,5.971001 -1.252001,25.833 11.444,14.161003c9.625998,-8.851997 -2.462,-25.721001 -16.012001,-16.502998c-13.518,9.196999 -0.15,33.734001 17.858,20.313995c17.397999,-12.961998 -2.896,-35.381996 -20.759,-23.474998" fill="none" stroke="#FB805F" stroke-linecap="round" id="svg_305"/>
    <path d="m89.940002,-100.424004c-1.429001,1.011002 0.715996,3.423004 2.634995,1.892006c3.561005,-2.832001 -0.493996,-7.342003 -4.029999,-5.459999c-7.083,3.764 -0.911995,12.841995 5.655998,8.920998c8.931007,-4.746002 1.442001,-17.004997 -7.122993,-13.25c-14.300003,6.269997 -1.310005,27.125999 12.022995,14.870003c7.578003,-6.970001 2.333,-18.676003 -6.763,-20.011002" fill="none" stroke="#FB805F" stroke-linecap="round" id="svg_306"/>
    <path d="m78.524002,-106.738998c-6.848,11.158997 5.676994,29.695999 22.859001,17.811996" fill="none" stroke="#FB805F" stroke-linecap="round" id="svg_307"/>
    <path d="m107.356003,-105.734001c-1.903,-5.382996 -6.771004,-9.978996 -12.711006,-11.403999" fill="none" stroke="#FB805F" stroke-linecap="round" id="svg_308"/>
    <path d="m121.208,-109.224998c1.744003,-1.483002 5.027,-6.186005 4.486,-9.743004" fill="none" stroke="#FB805F" stroke-linecap="round" id="svg_309"/>
    <path d="m73.195,-82.984001c1.487,-2.506996 2.003998,-4.377998 1.746002,-6.770996" fill="none" stroke="#FB805F" stroke-linecap="round" id="svg_310"/>
    <path d="m42.330002,-52.831001c-1.359001,0.962002 0.683998,3.260002 2.512997,1.804001c3.386002,-2.696999 -0.470997,-6.993 -3.841999,-5.200001c-6.741001,3.583 -0.862999,12.229 5.386002,8.496002c8.507999,-4.521 1.376999,-16.197002 -6.782001,-12.620003c-13.621,5.971001 -1.248001,25.833 11.446999,14.163002c9.628002,-8.852001 -2.459999,-25.723003 -16.011997,-16.503002c-13.517,9.197002 -0.149002,33.734001 17.858997,20.313004c17.397999,-12.964001 -2.896,-35.384003 -20.759998,-23.474998c-8.330999,5.553997 -7.983999,18.917995 -3.471001,23.430996" fill="none" stroke="#FB805F" stroke-linecap="round" id="svg_311"/>
    <path d="m40.547001,-75.705002c-2.355999,-0.319 -2.292,4.263 1.104,3.020004c4.528999,-1.657005 1.139,-7.990005 -3.429001,-6.447006c-6.538,2.206001 -3.168999,12.519005 4.412998,9.725006c10.5,-4.068001 4.563004,-17.042999 -5.898998,-14.001999c-8.843,2.564995 -8.983999,12.636993 -3.035999,16.689995" fill="none" stroke="#FB805F" stroke-linecap="round" id="svg_312"/>
    <path d="m48.598,-68.301003c7.993,-7.272995 1.332001,-23.434998 -12.479,-19.564995" fill="none" stroke="#FB805F" stroke-linecap="round" id="svg_313"/>
    <path d="m26.216999,-79.749001c-2.311998,5.360001 -0.862999,11.847 3.827002,15.650002" fill="none" stroke="#FB805F" stroke-linecap="round" id="svg_314"/>
    <path d="m52.952,-65.869003c8.668999,-9.419998 1.942001,-28.967995 -14.910999,-26.538994" fill="none" stroke="#FB805F" stroke-linecap="round" id="svg_315"/>
    <path d="m118.232002,-78.696999c-1.909004,4.513 0.520996,15.968998 6.769997,17.876999" fill="none" stroke="#FB805F" stroke-linecap="round" id="svg_316"/>
    <path d="m113.719002,-79.448997c-2.950005,6.943001 1.215996,19.322998 6.596001,21.926998" fill="none" stroke="#FB805F" stroke-linecap="round" id="svg_317"/>
    <path d="m115.101997,-59.606998c0.385002,-1.030003 0.539001,-1.791 0.661003,-2.845001" fill="none" stroke="#FB805F" stroke-linecap="round" id="svg_318"/>
    <path d="m112.721001,-73.555c-5.146004,-7.018997 -15.832001,-9.915001 -26.252998,0.411003" fill="none" stroke="#FB805F" stroke-linecap="round" id="svg_319"/>
    <path d="m101.903999,-83.944c4.293999,0.277 8.453003,1.803001 11.719002,4.495003" fill="none" stroke="#FB805F" stroke-linecap="round" id="svg_320"/>
    <path d="m42.910999,-105.615997c0.338001,1.786995 2.504002,2.18 3.089001,0.688995" fill="none" stroke="#FB805F" stroke-linecap="round" id="svg_321"/>
    <path d="m40.766998,-107.952003c-0.743,0.577003 -1.484997,1.638 -1.573997,2.777c-0.534,6.842003 9.209,6.509003 10.398998,0.775002" fill="none" stroke="#FB805F" stroke-linecap="round" id="svg_322"/>
    <path d="m38.366001,-111.011002c-1.546001,0.472 -3.178001,2.431 -3.315002,4.898003c-0.708,12.775002 18.301003,12.775002 19.235001,0.68" fill="none" stroke="#FB805F" stroke-linecap="round" id="svg_323"/>
    <path d="m36.673,-115.708c-3.702999,2.448997 -5.154001,4.920998 -5.695,9.049004" fill="none" stroke="#FB805F" stroke-linecap="round" id="svg_324"/>
    <path d="m38.007,-93.725998c8.102001,3.728996 20.752998,-0.406006 20.609001,-13.792" fill="none" stroke="#FB805F" stroke-linecap="round" id="svg_325"/>
    <path d="m72.932999,-105.605003c-4.187996,-2.238998 -9.198997,-3.370995 -14.278,-1.878998" fill="none" stroke="#FB805F" stroke-linecap="round" id="svg_326"/>
    <path d="m72.035004,-96.728996c-3.532005,-3.648003 -10.041004,-5.126007 -16.859005,-0.330002c-2.528,1.778999 -4.147999,4.652 -4.224998,7.959999" fill="none" stroke="#FB805F" stroke-linecap="round" id="svg_327"/>
    <path d="m72.027,-101.728996c-3.705002,-2.426003 -8.498001,-3.223007 -13.562,-1.627007" fill="none" stroke="#FB805F" stroke-linecap="round" id="svg_328"/>
    <path d="m47.365002,-92.597c-0.107002,0.370003 -0.029003,0.725998 -0.124001,1.055" fill="none" stroke="#FB805F" stroke-linecap="round" id="svg_329"/>
    <path d="m64.424004,-113.065002c0,1.389 0.868996,1.216003 1.042,1.735001" fill="none" stroke="#FB805F" stroke-linecap="round" id="svg_330"/>
    <path d="m133.936996,-83.410004c-8.843994,2.565002 -8.984993,12.637001 -3.035004,16.690002" fill="none" stroke="#FB805F" stroke-linecap="round" id="svg_331"/>
    <path d="m123.417999,-79.749001c-2.311996,5.360001 -0.865997,11.847 3.827003,15.650002" fill="none" stroke="#FB805F" stroke-linecap="round" id="svg_332"/>
    <path d="m128.664993,-117.558998c-2.825005,2.063995 -4.101006,5.193001 -4.891006,9.002998" fill="none" stroke="#FB805F" stroke-linecap="round" id="svg_333"/>
    <path d="m31.462,-117.558998c-2.820999,2.063995 -4.098,5.193001 -4.889,9.002998" fill="none" stroke="#FB805F" stroke-linecap="round" id="svg_334"/>
    <path d="m106.205002,-120.620003c0.470001,2.104004 3.714996,1.771004 3.064995,-0.987999c-0.836998,-3.528999 -6.356995,-2.463997 -6.168999,1.158005c0.435005,8.230995 10.348,5.702995 9.625,-1.175003c-0.522995,-9.514008 -13.452995,-7.322998 -13.478996,1.583c-0.033005,13.615997 23.344002,10.219002 16.991997,-6.945" fill="none" stroke="#FB805F" stroke-linecap="round" id="svg_335"/>
    <path d="m34.622002,-130.117996c-1.234001,0.871994 0.618999,2.955994 2.278,1.634995c3.071999,-2.446991 -0.426003,-6.341003 -3.483002,-4.716995c-6.115999,3.251999 -0.784,11.092995 4.884998,7.705994c7.719002,-4.099991 1.285004,-14.606995 -6.149998,-11.446991c-11.252001,4.786987 -1.131001,23.432991 10.382999,12.846992c2.861,-2.630997 3.702,-5.424004 3.014999,-8.765999" fill="none" stroke="#FB805F" stroke-linecap="round" id="svg_336"/>
    <path d="m32.321999,-141.149002c-1.399998,0.386002 -2.847998,1.063004 -4.311998,2.087006c-13.117001,9.164001 -0.013,30.189995 16.197001,18.423996c2.683998,-1.945999 4.203999,-4.909996 4.897999,-7.843994" fill="none" stroke="#FB805F" stroke-linecap="round" id="svg_337"/>
    <path d="m106.205002,-23.42c0.470001,2.103001 3.714996,1.77 3.064995,-0.989c-0.836998,-3.528 -6.356995,-2.463999 -6.168999,1.159c0.435005,8.231 10.348,5.702 9.625,-1.176001c-0.522995,-9.513998 -13.452995,-7.321999 -13.478996,1.584002c-0.033005,13.613999 23.344002,10.218999 16.991997,-6.946001" fill="none" stroke="#FB805F" stroke-linecap="round" id="svg_338"/>
    <path d="m102.945,-33.855999c-5.645996,2.404999 -8.098,6.487999 -7.154999,14.268" fill="none" stroke="#FB805F" stroke-linecap="round" id="svg_339"/>
    <path d="m106.945999,-10.031c7.595001,0.08 18.429001,-7.011999 13.639,-18.178999" fill="none" stroke="#FB805F" stroke-linecap="round" id="svg_340"/>
    <path d="m51.785999,-19.785999c3.385002,-2.697001 0.570999,-7.859001 -3.841999,-5.199001c-6.539001,3.941 -0.862999,12.229001 5.386002,8.494001c7.707996,-4.094 3.151997,-14.773001 -4.356003,-13.444" fill="none" stroke="#FB805F" stroke-linecap="round" id="svg_341"/>
    <path d="m40.625,-21.419001c-0.412998,7.217001 8.492001,14.822001 17.369999,6.471001c4.542,-4.271 4.526001,-9.870001 1.907001,-13.929001" fill="none" stroke="#FB805F" stroke-linecap="round" id="svg_342"/>
    <path d="m24.01,-109.224998c1.743,-1.483002 5.025,-6.186005 4.483999,-9.743004" fill="none" stroke="#FB805F" stroke-linecap="round" id="svg_343"/>
   </g>
  </pattern>
 </defs>
 <g>
  <title>Layer 1</title>
  <g display="none" id="REFERENCE_1_">
   <g display="inline" id="Outline">
    <g id="Outer">
     <path d="m188.190002,364.191986c10.125992,-36 210.717987,-12 179.717987,-72c-94.875977,-183.630997 0,-215.999985 0,-215.999985c-30,-9 -35.863983,-36 -36,-36c-89.841995,36 -143.717987,-36.000001 -143.717987,-36.000001l0,0c0,0 -53.125,72.000009 -144.000004,36.000001c-0.062,0 -6,27 -35.999999,36c0,0 94.876002,32.368996 0,215.999985c-30.999999,60 169.875003,36 180.000003,72z" fill="none" stroke="#000000" stroke-width="5" id="svg_344"/>
    </g>
    <path d="m187.774002,347.359009c22.5,-22.5 185.574997,-1.582001 160.658005,-61.38501c-73.242004,-175.781998 -2.242004,-207.781998 -2.242004,-207.781998c-22.403992,-11.453003 -20.868988,-24 -21,-24c-86.184998,34.534996 -136.960007,-31.064001 -136.960007,-31.064001l0,0c0,0 -49.863998,66.598997 -137.039997,32.064001c-0.059998,0 -1.470989,11.546997 -19.999998,23c0,0 69.000002,50 -5,203.999985c-30.162,62.771027 136.584002,40.167023 161.584002,65.167023z" fill="none" id="Inner" stroke="#000000" stroke-width="3"/>
   </g>
   <g display="inline" id="Cross_Section">
    <g id="svg_345">
     <line fill="none" stroke="#000000" stroke-width="3" x1="184.524" x2="184.524" y1="27.192" y2="344.443" id="svg_346"/>
     <line fill="none" stroke="#000000" stroke-width="3" x1="191.19" x2="191.19" y1="27.192" y2="344.609" id="svg_347"/>
    </g>
    <g id="svg_348">
     <line fill="none" stroke="#000000" stroke-width="3" x1="58.524" x2="183.857" y1="183.858" y2="183.858" id="svg_349"/>
     <line fill="none" stroke="#000000" stroke-width="3" x1="57.857" x2="183.857" y1="189.859" y2="189.859" id="svg_350"/>
    </g>
    <g id="svg_351">
     <line fill="none" stroke="#000000" stroke-width="3" x1="191.19" x2="317.19" y1="183.858" y2="183.858" id="svg_352"/>
     <line fill="none" stroke="#000000" stroke-width="3" x1="191.19" x2="318.523" y1="189.859" y2="189.859" id="svg_353"/>
    </g>
   </g>
   <g display="inline" id="Inner_Sections">
    <path d="m51.189999,55.192001c-5,15 -20.332998,22.667 -20.332998,22.667c42.000002,39 27.332998,105.667 27.332998,105.667l126.000004,0.332993l0,-155.999994c-58,62.333002 -133.000004,27.333002 -133.000004,27.333002l0,0z" fill="none" stroke="#000000" id="svg_354"/>
    <path d="m191.190002,27.191999l0,156.667009l126.333008,0c0,0 -14.333008,-78.667 28.333984,-105.667c0,0 -19.666992,-10 -21,-23.667c0,-0.000008 -71,33.999992 -133.666992,-27.33301z" fill="none" stroke="#000000" id="svg_355"/>
    <path d="m184.190002,190.192001l-127.000011,0c-6.5,50.5 -38.99999,96.999985 -33.99999,110.499985c1,34 146.000002,30 161.000002,44l0,-154.499985z" fill="none" stroke="#000000" id="svg_356"/>
    <path d="m191.190002,190.192001l127,0c5,32 23.765991,75.543991 31,98.999985c16.5,53.5 -117,36.5 -158,55l0,-153.999985z" fill="none" stroke="#000000" id="svg_357"/>
   </g>
   <g display="inline" id="REFERENCE">
    <path d="m188.190002,364.191986c10.125992,-36 210.717987,-12 179.717987,-72c-94.875977,-183.630997 0,-215.999985 0,-215.999985c-30,-9 -35.863983,-36 -36,-36c-89.841995,36 -143.717987,-36.000001 -143.717987,-36.000001l0,0c0,0 -53.125,72.000009 -144.000004,36.000001c-0.062,0 -6,27 -35.999999,36c0,0 94.876002,32.368996 0,215.999985c-30.999999,60 169.875003,36 180.000003,72z" fill="none" stroke="#000000" stroke-width="0.25" id="svg_358"/>
    <path d="m187.774002,347.359009c22.5,-22.5 185.574997,-1.582001 160.658005,-61.38501c-73.242004,-175.781998 -2.242004,-207.781998 -2.242004,-207.781998c-22.403992,-11.453003 -20.868988,-24 -21,-24c-86.184998,34.534996 -136.960007,-31.064001 -136.960007,-31.064001l0,0c0,0 -49.863998,66.598997 -137.039997,32.064001c-0.059998,0 -1.470989,11.546997 -19.999998,23c0,0 69.000002,50 -5,203.999985c-30.162,62.771027 136.584002,40.167023 161.584002,65.167023z" fill="none" id="Inner_2_" stroke="#000000" stroke-width="0.25"/>
    <g id="svg_359">
     <line fill="none" stroke="#000000" stroke-width="0.25" x1="184.524" x2="184.524" y1="27.192" y2="344.443" id="svg_360"/>
     <line fill="none" stroke="#000000" stroke-width="0.25" x1="191.19" x2="191.19" y1="27.192" y2="344.609" id="svg_361"/>
    </g>
    <g id="svg_362">
     <line fill="none" stroke="#000000" stroke-width="0.25" x1="58.524" x2="183.857" y1="183.858" y2="183.858" id="svg_363"/>
     <line fill="none" stroke="#000000" stroke-width="0.25" x1="57.857" x2="183.857" y1="189.859" y2="189.859" id="svg_364"/>
    </g>
    <g id="svg_365">
     <line fill="none" stroke="#000000" stroke-width="0.25" x1="191.19" x2="317.19" y1="183.858" y2="183.858" id="svg_366"/>
     <line fill="none" stroke="#000000" stroke-width="0.25" x1="191.19" x2="318.523" y1="189.859" y2="189.859" id="svg_367"/>
    </g>
   </g>
  </g>
  <g display="none" id="GreenPink">
   <g display="inline" id="Outline_copy">
    <g id="Outer_copy">
     <path d="m188.190002,364.191986c10.125992,-36 210.717987,-12 179.717987,-72c-94.875977,-183.630997 0,-215.999985 0,-215.999985c-30,-9 -35.863983,-36 -36,-36c-89.841995,36 -143.717987,-36.000001 -143.717987,-36.000001l0,0c0,0 -53.125,72.000009 -144.000004,36.000001c-0.062,0 -6,27 -35.999999,36c0,0 94.876002,32.368996 0,215.999985c-30.999999,60 169.875003,36 180.000003,72z" id="svg_368"/>
    </g>
   </g>
   <g display="inline" id="Inner_Sections_copy_2">
    <path d="m51.189999,55.192001c-5,15 -20.332998,22.667 -20.332998,22.667c42.000002,39 27.332998,105.667 27.332998,105.667l126.000004,0.332993l0,-155.999994c-58,62.333002 -133.000004,27.333002 -133.000004,27.333002l0,0z" fill="#73BE1E" stroke="#FBAEFF" stroke-width="4" id="svg_369"/>
    <path d="m191.190002,27.191999l0,156.667009l126.333008,0c0,0 -14.333008,-78.667 28.333984,-105.667c0,0 -19.666992,-10 -21,-23.667c0,-0.000008 -71,33.999992 -133.666992,-27.33301z" fill="#FBAEFF" stroke="#73BE1E" stroke-width="4" id="svg_370"/>
    <path d="m184.190002,190.192001l-127.000011,0c-6.5,50.5 -38.99999,96.999985 -33.99999,110.499985c1,34 146.000002,30 161.000002,44l0,-154.499985z" fill="#FBAEFF" stroke="#73BE1E" stroke-width="4" id="svg_371"/>
    <path d="m191.190002,190.192001l127,0c5,32 23.765991,75.543991 31,98.999985c16.5,53.5 -117,36.5 -158,55l0,-153.999985z" fill="#73BE1E" stroke="#FBAEFF" stroke-width="4" id="svg_372"/>
   </g>
  </g>
  <g display="none" id="Pattern">
   <g display="inline" id="Outline_copy_2">
    <g id="Outer_copy_2">
     <path d="m188.190002,364.191986c10.125992,-36 210.717987,-12 179.717987,-72c-94.875977,-183.630997 0,-215.999985 0,-215.999985c-30,-9 -35.863983,-36 -36,-36c-89.841995,36 -143.717987,-36.000001 -143.717987,-36.000001l0,0c0,0 -53.125,72.000009 -144.000004,36.000001c-0.062,0 -6,27 -35.999999,36c0,0 94.876002,32.368996 0,215.999985c-30.999999,60 169.875003,36 180.000003,72z" id="svg_373"/>
    </g>
   </g>
   <g display="inline" id="Inner_Sections_copy">
    <path d="m51.189999,55.192001c-5,15 -20.332998,22.667 -20.332998,22.667c42.000002,39 27.332998,105.667 27.332998,105.667l126.000004,0.332993l0,-155.999994c-58,62.333002 -133.000004,27.333002 -133.000004,27.333002l0,0z" fill="url(#Spiral)" stroke="url(#Chinese_Tiles)" stroke-width="5" id="svg_374"/>
    <path d="m191.190002,27.191999l0,156.667009l126.333008,0c0,0 -14.333008,-78.667 28.333984,-105.667c0,0 -19.666992,-10 -21,-23.667c0,-0.000008 -71,33.999992 -133.666992,-27.33301z" fill="url(#Chinese_Tiles)" stroke="url(#Area_Rug)" stroke-width="4" id="svg_375"/>
    <path d="m184.190002,190.192001l-127.000011,0c-6.5,50.5 -38.99999,96.999985 -33.99999,110.499985c1,34 146.000002,30 161.000002,44l0,-154.499985z" fill="url(#Chinese_Tiles)" stroke="url(#Area_Rug)" stroke-width="4" id="svg_376"/>
    <path d="m191.190002,190.192001l127,0c5,32 23.765991,75.543991 31,98.999985c16.5,53.5 -117,36.5 -158,55l0,-153.999985z" fill="url(#Spiral)" stroke="url(#Chinese_Tiles)" stroke-width="4" id="svg_377"/>
   </g>
  </g>
  <g id="Gold">
   <g id="Outside">
    <g id="Outline_copy_3">
     <g id="Outer_copy_3"/>
    </g>
    <g id="Inner_Sections_copy_3"/>
   </g>
  </g>
  <g id="Shield">
   <g id="Shield_1_"/>
  </g>
  <g id="Decorations"/>
  <g id="Mini_Gold">
   <g id="svg_396">
    <g id="svg_397">
     <g id="svg_398"/>
    </g>
    <g id="svg_399"/>
   </g>
   <g id="svg_400">
    <path d="m29.708929,26.589191c33.625124,-28.946035 289.386744,-24.560935 317.917871,0c3.241882,2.790735 -11.718536,252.406628 -11.718536,252.406628c0,41.883789 -147.241547,94.951263 -147.241547,94.951263s-146.220421,-52.62793 -146.220421,-94.951263l-12.737368,-252.406628l0,0z" fill="#ffffff" stroke="#000000" stroke-width="4" id="svg_401"/>
    <path d="m50.494343,43.409306c29.234432,-25.974962 251.587536,-22.039747 276.395184,0c2.817902,2.503567 -10.189209,226.485775 -10.189209,226.485775c0,37.583679 -128.008392,85.202362 -128.008392,85.202362s-127.122078,-47.2258 -127.122078,-85.202362l-11.075504,-226.485775z" fill="#ffffff" stroke="#000000" stroke-width="4" id="svg_402"/>
    <path d="m52.873951,95.082436c28.732243,-25.528152 247.257061,-21.660324 271.637127,0" fill="#ffffff" stroke="#000000" stroke-width="4" id="svg_403"/>
    <g id="svg_404">
     <path d="m53.175014,89.899055c28.73225,-25.528145 247.257084,-21.660324 271.63715,0" fill="#ffffff" id="svg_405"/>
     <g id="svg_406">
      <text font-family="'TimesNewRomanPS-BoldMT'" font-size="48" transform="matrix(1.16728, -0.255022, 0.296246, 1.00485, 57.6774, 84.7133)" id="svg_407" y="0" x="0" fill="#ffffff">R</text>
      <text font-family="'TimesNewRomanPS-BoldMT'" font-size="48" transform="matrix(0.836233, -0.0916422, 0.106456, 0.719868, 91.3487, 77.4951)" id="svg_408" y="0" x="0" fill="#ffffff">o</text>
      <text font-family="'TimesNewRomanPS-BoldMT'" font-size="48" transform="matrix(0.840568, -0.0545292, 0.0633437, 0.7236, 115.923, 74.7146)" id="svg_409" y="0" x="0" fill="#ffffff">y</text>
      <text font-family="'TimesNewRomanPS-BoldMT'" font-size="48" transform="matrix(0.842375, -0.0285086, 0.0331169, 0.725155, 138.48, 73.1636)" id="svg_410" y="0" x="0" fill="#ffffff">a</text>
      <text font-family="'TimesNewRomanPS-BoldMT'" font-size="48" transform="matrix(0.842977, -0.00476871, 0.00553956, 0.725673, 164.306, 72.2662)" id="svg_411" y="0" x="0" fill="#ffffff">l</text>
      <text font-family="'TimesNewRomanPS-BoldMT'" font-size="48" transform="matrix(1.20389, 0.0243619, -0.0282999, 1.03637, 186.339, 72.0444)" id="svg_412" y="0" x="0" fill="#ffffff">S</text>
      <text font-family="'TimesNewRomanPS-BoldMT'" font-size="48" transform="matrix(0.841652, 0.040534, -0.0470863, 0.724533, 212.17, 72.4783)" id="svg_413" y="0" x="0" fill="#ffffff">h</text>
      <text font-family="'TimesNewRomanPS-BoldMT'" font-size="48" transform="matrix(0.839845, 0.0618896, -0.0718939, 0.722978, 240.077, 73.8704)" id="svg_414" y="0" x="0" fill="#ffffff">i</text>
      <text font-family="'TimesNewRomanPS-BoldMT'" font-size="48" transform="matrix(0.837076, 0.0853185, -0.09911, 0.720594, 252.212, 74.6246)" id="svg_415" y="0" x="0" fill="#ffffff">e</text>
      <text font-family="'TimesNewRomanPS-BoldMT'" font-size="48" transform="matrix(0.829609, 0.128652, -0.149448, 0.714166, 274.477, 76.7217)" id="svg_416" y="0" x="0" fill="#ffffff">l</text>
      <text font-family="'TimesNewRomanPS-BoldMT'" font-size="48" transform="matrix(0.798781, 0.231904, -0.269391, 0.687627, 297.159, 79.6135)" id="svg_417" y="0" x="0" fill="#ffffff">d</text>
     </g>
    </g>
   </g>
  </g>
  <g id="svg_378">
   <g id="svg_379">
    <g id="svg_380">
     <g id="svg_381"/>
    </g>
    <g id="svg_382"/>
   </g>
   <g id="svg_383">
    <path id="svg_384" d="m29.708931,29.20636c33.625122,-28.394608 289.386742,-24.093048 317.91787,0c3.241882,2.737568 -11.718536,247.598267 -11.718536,247.598267c0,41.085876 -147.241547,93.142395 -147.241547,93.142395s-146.220421,-51.625336 -146.220421,-93.142395l-12.737366,-247.598267l0,0z" fill="#ffffff" stroke="#000000" stroke-width="4"/>
    <path id="svg_385" d="m50.494339,45.706047c29.234436,-25.480133 251.58754,-21.619888 276.395187,0c2.817902,2.455872 -10.189209,222.171181 -10.189209,222.171181c0,36.867706 -128.008392,83.579254 -128.008392,83.579254s-127.122078,-46.326141 -127.122078,-83.579254l-11.075508,-222.171181z" fill="#ffffff" stroke="#000000" stroke-width="4"/>
    <path id="svg_386" d="m52.873947,96.394798c28.732246,-25.04184 247.257065,-21.247696 271.637131,0" fill="#ffffff" stroke="#000000" stroke-width="4"/>
    <g id="svg_387">
     <path id="svg_388" d="m53.175018,91.310165c28.732246,-25.04184 247.25708,-21.247696 271.637146,0" fill="#ffffff"/>
     <g id="svg_389">
      <text id="svg_390" font-family="'TimesNewRomanPS-BoldMT'" font-size="48" transform="matrix(1.16728, -0.250164, 0.296246, 0.985708, 57.6774, 86.2232)" y="0" x="0" fill="#ffffff">R</text>
      <text id="svg_391" font-family="'TimesNewRomanPS-BoldMT'" font-size="48" transform="matrix(0.836233, -0.0898964, 0.106456, 0.706154, 91.3487, 79.1425)" y="0" x="0" fill="#ffffff">o</text>
      <text id="svg_392" font-family="'TimesNewRomanPS-BoldMT'" font-size="48" transform="matrix(0.840568, -0.0534904, 0.0633437, 0.709815, 115.923, 76.415)" y="0" x="0" fill="#ffffff">y</text>
      <text id="svg_393" font-family="'TimesNewRomanPS-BoldMT'" font-size="48" transform="matrix(0.842375, -0.0279655, 0.0331169, 0.711341, 138.48, 74.8936)" y="0" x="0" fill="#ffffff">a</text>
      <text id="svg_394" font-family="'TimesNewRomanPS-BoldMT'" font-size="48" transform="matrix(0.842977, -0.00467787, 0.00553956, 0.711849, 164.306, 74.0132)" y="0" x="0" fill="#ffffff">l</text>
      <text id="svg_395" font-family="'TimesNewRomanPS-BoldMT'" font-size="48" transform="matrix(1.20389, 0.0238978, -0.0282999, 1.01662, 186.339, 73.7957)" y="0" x="0" fill="#ffffff">S</text>
      <text id="svg_418" font-family="'TimesNewRomanPS-BoldMT'" font-size="48" transform="matrix(0.841652, 0.0397619, -0.0470863, 0.710731, 212.17, 74.2213)" y="0" x="0" fill="#ffffff">h</text>
      <text id="svg_419" font-family="'TimesNewRomanPS-BoldMT'" font-size="48" transform="matrix(0.839845, 0.0607106, -0.0718939, 0.709205, 240.077, 75.5868)" y="0" x="0" fill="#ffffff">i</text>
      <text id="svg_420" font-family="'TimesNewRomanPS-BoldMT'" font-size="48" transform="matrix(0.837076, 0.0836931, -0.09911, 0.706866, 252.212, 76.3266)" y="0" x="0" fill="#ffffff">e</text>
      <text id="svg_421" font-family="'TimesNewRomanPS-BoldMT'" font-size="48" transform="matrix(0.829609, 0.126201, -0.149448, 0.700561, 274.477, 78.3839)" y="0" x="0" fill="#ffffff">l</text>
      <text id="svg_422" font-family="'TimesNewRomanPS-BoldMT'" font-size="48" transform="matrix(0.798781, 0.227487, -0.269391, 0.674528, 297.159, 81.2206)" y="0" x="0" fill="#ffffff">d</text>
     </g>
    </g>
   </g>
  </g>
 </g>
</svg>