<svg xmlns="http://www.w3.org/2000/svg" width="100" height="100" viewBox="0 0 128 128"><path fill="#fff" d="M124,127h-12V44H16v83H4V42c0-5.5,4.5-10,10-10h100c5.5,0,10,4.5,10,10V127z"/><path fill="#444b54" d="M124,127c-1.7,0-3-1.3-3-3V42c0-3.9-3.1-7-7-7H14c-3.9,0-7,3.1-7,7v82c0,1.7-1.3,3-3,3s-3-1.3-3-3V42 c0-7.2,5.8-13,13-13h100c7.2,0,13,5.8,13,13v82C127,125.7,125.7,127,124,127z"/><path fill="#444b54" d="M112 53c-.8 0-1.5-.3-2.1-.9l-6-6c-1.2-1.2-1.2-3.1 0-4.2 1.2-1.2 3.1-1.2 4.2 0l6 6c1.2 1.2 1.2 3.1 0 4.2C113.5 52.7 112.8 53 112 53zM16 53c-.8 0-1.5-.3-2.1-.9-1.2-1.2-1.2-3.1 0-4.2l6-6c1.2-1.2 3.1-1.2 4.2 0 1.2 1.2 1.2 3.1 0 4.2l-6 6C17.5 52.7 16.8 53 16 53z"/><path fill="#444b54" d="M112,41H16c-1.7,0-3,1.3-3,3v80c0,1.7,1.3,3,3,3s3-1.3,3-3v-10.8l12.9,12.9c0.6,0.6,1.4,0.9,2.1,0.9 s1.5-0.3,2.1-0.9c0,0,0,0,0,0c0,0,0,0,0,0L49,112.9l12.9,13.2c0.6,0.6,1.4,0.9,2.1,0.9c0.8,0,1.5-0.3,2.1-0.9c0,0,0,0,0,0 c0,0,0,0,0,0L79,112.9l12.8,13.2c0.6,0.6,1.4,0.9,2.1,0.9c0.8,0,1.5-0.3,2.1-0.9c0,0,0,0,0,0c0,0,0,0,0,0l12.9-12.9V124 c0,1.7,1.3,3,3,3s3-1.3,3-3V44C115,42.3,113.7,41,112,41z M109,73.6L98.2,62.5L109,51.4V73.6z M19,51.3l10.9,11.2L19,73.6V51.3z M44.7,47L44.7,47L34,58.1L23.2,47H44.7z M74.7,47L74.7,47L64,58.2L53.2,47.1l0.1-0.1H74.7z M104.9,47L94,58.2L83.2,47.1l0.1-0.1 H104.9z M34.1,66.8l10.9,11.2L34,89.1L23.1,78L34.1,66.8z M38.2,62.4L49,51.4l10.8,11.2l-10.7,11L38.2,62.4z M64,66.9l10.7,11.1 L64,88.9l-10.7-11L64,66.9z M68.2,62.6L79,51.4l10.8,11.1L78.9,73.6L68.2,62.6z M94,66.8L104.9,78L94,89.1L83.1,77.9L94,66.8z M19,82.3l10.8,11.1L19,104.6V82.3z M34,119.7l-10.8-10.8L34,97.7l10.7,10.9L34,119.7z M49,104.4l-10.7-11l10.9-11.2l10.7,11 L49,104.4z M64,119.7l-10.8-11.1L64,97.5l10.8,11.1L64,119.7z M68.2,93.2l10.7-11l10.8,11.2L79,104.3L68.2,93.2z M94,119.7 l-10.8-11.1l10.7-10.9l10.9,11.2L94,119.7z M98.1,93.4L109,82.3v22.3L98.1,93.4z"/></svg>